<?xml version="1.0" encoding="utf-8"?>
<!-- Generator: Adobe Illustrator 16.0.0, SVG Export Plug-In . SVG Version: 6.00 Build 0)  -->
<!DOCTYPE svg PUBLIC "-//W3C//DTD SVG 1.1//EN" "http://www.w3.org/Graphics/SVG/1.1/DTD/svg11.dtd">
<svg version="1.1" id="Layer_1" xmlns="http://www.w3.org/2000/svg" xmlns:xlink="http://www.w3.org/1999/xlink" x="0px" y="0px"
	 width="60px" height="60px" viewBox="0 0 60 60" enable-background="new 0 0 60 60" xml:space="preserve">
<g>
	<path fill="#E97E26" d="M43.064,56.275H14.926c-0.473,0-0.857,0.385-0.857,0.857v2.01c0,0.473,0.385,0.857,0.857,0.857
		s0.857-0.385,0.857-0.857V57.99h27.281c0.473,0,0.856-0.385,0.856-0.857S43.537,56.275,43.064,56.275z"/>
	<path fill="#E97E26" d="M22.965,25.833h4.02c0.473,0,0.857-0.385,0.857-0.857v-6.03c0-0.473-0.384-0.857-0.857-0.857h-4.02
		c-0.473,0-0.857,0.384-0.857,0.857v6.03c0,0.229,0.089,0.444,0.251,0.605C22.521,25.743,22.737,25.833,22.965,25.833z
		 M23.823,19.803h2.305v4.315h-2.305V19.803z"/>
	<path fill="#E97E26" d="M12.916,12.059H0.857C0.385,12.059,0,12.444,0,12.916v20.099c0,0.473,0.385,0.857,0.857,0.857
		c0.473,0,0.857-0.385,0.857-0.857V13.773h11.202c0.473,0,0.857-0.385,0.857-0.857C13.773,12.444,13.389,12.059,12.916,12.059z"/>
	<path fill="#E97E26" d="M49.094,49.95h4.02c0.473,0,0.857-0.384,0.857-0.856v-6.029c0-0.473-0.385-0.857-0.857-0.857h-4.02
		c-0.473,0-0.857,0.385-0.857,0.857v6.029C48.236,49.566,48.621,49.95,49.094,49.95z M49.951,43.921h2.305v4.315h-2.305V43.921z"/>
	<path fill="#E97E26" d="M4.877,36.178c-2.468,0-3.663,3.46-4.23,6.363C0.007,45.812,0,49.062,0,49.094
		c0,2.308,1.641,4.317,3.901,4.778l0.118,0.024v5.246C4.02,59.615,4.404,60,4.877,60s0.857-0.385,0.857-0.857v-5.246l0.118-0.024
		c2.261-0.461,3.901-2.471,3.901-4.778c0-0.032-0.015-3.322-0.646-6.553C8.54,39.638,7.345,36.178,4.877,36.178z M4.877,52.256
		c-1.744,0-3.163-1.418-3.163-3.162c0-4.567,1.232-11.202,3.163-11.202S8.04,44.526,8.04,49.094
		C8.04,50.838,6.621,52.256,4.877,52.256z"/>
	<path fill="#E97E26" d="M10.906,30.148h-4.02c-0.473,0-0.857,0.384-0.857,0.857v2.01c0,0.473,0.384,0.857,0.857,0.857
		s0.857-0.385,0.857-0.857v-1.152h2.306v5.172c0,0.473,0.384,0.857,0.857,0.857s0.857-0.385,0.857-0.857v-6.029
		c0-0.229-0.089-0.444-0.251-0.606C11.351,30.237,11.135,30.148,10.906,30.148z"/>
	<path fill="#E97E26" d="M49.094,25.833h4.02c0.473,0,0.857-0.384,0.857-0.857v-6.03c0-0.473-0.385-0.857-0.857-0.857h-4.02
		c-0.473,0-0.857,0.384-0.857,0.857v6.03C48.236,25.448,48.621,25.833,49.094,25.833z M49.951,19.803h2.305v4.315h-2.305V19.803z"/>
	<path fill="#E97E26" d="M10.906,18.089h-4.02c-0.473,0-0.857,0.384-0.857,0.857v6.03c0,0.472,0.384,0.857,0.857,0.857h4.02
		c0.473,0,0.857-0.385,0.857-0.857v-6.03c0-0.229-0.089-0.444-0.251-0.606C11.351,18.178,11.135,18.089,10.906,18.089z
		 M10.049,24.118H7.744v-4.315h2.305V24.118z"/>
	<path fill="#E97E26" d="M33.015,25.833h4.02c0.473,0,0.857-0.385,0.857-0.857v-6.03c0-0.473-0.385-0.857-0.857-0.857h-4.02
		c-0.473,0-0.857,0.384-0.857,0.857v6.03C32.157,25.448,32.542,25.833,33.015,25.833z M33.872,19.803h2.306v4.315h-2.306V19.803z"/>
	<path fill="#E97E26" d="M59.143,12.059H47.084c-0.473,0-0.857,0.385-0.857,0.857c0,0.473,0.385,0.857,0.857,0.857h11.202v40.739
		l-0.198-0.07c-0.332-0.119-0.645-0.177-0.955-0.177c-0.164,0-0.33,0.015-0.49,0.043l-0.104,0.019l-0.052-0.092
		c-0.678-1.221-1.971-1.979-3.374-1.979s-2.696,0.759-3.374,1.979l-0.051,0.092l-0.104-0.019c-0.161-0.028-0.326-0.043-0.491-0.043
		c-1.581,0-2.867,1.286-2.867,2.867S47.513,60,49.094,60h8.039C58.714,60,60,58.714,60,57.133V12.916
		C60,12.444,59.615,12.059,59.143,12.059z M57.133,58.286h-8.039c-0.636,0-1.153-0.518-1.153-1.153s0.518-1.152,1.153-1.152
		c0.221,0,0.432,0.063,0.624,0.188c0.232,0.148,0.531,0.177,0.788,0.073c0.258-0.104,0.449-0.329,0.512-0.601
		c0.229-0.983,1.09-1.67,2.096-1.67s1.868,0.687,2.096,1.67c0.063,0.271,0.254,0.496,0.513,0.601
		c0.256,0.104,0.555,0.075,0.787-0.073c0.178-0.115,0.383-0.176,0.594-0.176c0.642,0,1.184,0.522,1.184,1.141
		C58.286,57.769,57.769,58.286,57.133,58.286z"/>
	<path fill="#E97E26" d="M33.015,13.773h4.02c0.473,0,0.857-0.385,0.857-0.857v-6.03c0-0.473-0.385-0.857-0.857-0.857h-4.02
		c-0.473,0-0.857,0.384-0.857,0.857v6.03C32.157,13.389,32.542,13.773,33.015,13.773z M33.872,7.744h2.306v4.315h-2.306V7.744z"/>
	<path fill="#E97E26" d="M33.015,37.892h4.02c0.473,0,0.857-0.385,0.857-0.857v-6.029c0-0.473-0.385-0.857-0.857-0.857h-4.02
		c-0.473,0-0.857,0.384-0.857,0.857v6.029C32.157,37.507,32.542,37.892,33.015,37.892z M33.872,31.862h2.306v4.315h-2.306V31.862z"
		/>
	<path fill="#E97E26" d="M26.985,13.773c0.473,0,0.857-0.385,0.857-0.857v-6.03c0-0.473-0.384-0.857-0.857-0.857h-4.02
		c-0.473,0-0.857,0.384-0.857,0.857v6.03c0,0.229,0.089,0.444,0.251,0.606c0.162,0.162,0.377,0.251,0.606,0.251H26.985z
		 M23.823,7.744h2.305v4.315h-2.305V7.744z"/>
	<path fill="#E97E26" d="M29.39,48.486c-0.153,0.161-0.247,0.39-0.247,0.607c0,0.217,0.094,0.446,0.251,0.612
		c0.161,0.151,0.389,0.245,0.606,0.245c0.217,0,0.445-0.094,0.612-0.251c0.151-0.16,0.245-0.39,0.245-0.606
		s-0.094-0.446-0.251-0.612c-0.151-0.146-0.373-0.232-0.606-0.232S29.544,48.335,29.39,48.486z"/>
	<path fill="#E97E26" d="M22.965,37.892h4.02c0.473,0,0.857-0.385,0.857-0.857v-6.029c0-0.473-0.384-0.857-0.857-0.857h-4.02
		c-0.473,0-0.857,0.384-0.857,0.857v6.029c0,0.229,0.089,0.444,0.251,0.606C22.521,37.803,22.737,37.892,22.965,37.892z
		 M23.823,31.862h2.305v4.315h-2.305V31.862z"/>
	<path fill="#E97E26" d="M20.099,43.064c0,0.473,0.384,0.856,0.857,0.856h3.163v9.192c0,0.473,0.385,0.857,0.857,0.857
		c0.472,0,0.857-0.385,0.857-0.857v-9.192h8.335v9.192c0,0.473,0.384,0.857,0.856,0.857s0.857-0.385,0.857-0.857v-9.192h3.162
		c0.473,0,0.857-0.384,0.857-0.856s-0.385-0.857-0.857-0.857H20.956C20.483,42.207,20.099,42.592,20.099,43.064z"/>
	<path fill="#E97E26" d="M49.094,37.892h4.02c0.473,0,0.857-0.385,0.857-0.857v-6.029c0-0.473-0.385-0.857-0.857-0.857h-4.02
		c-0.473,0-0.857,0.384-0.857,0.857v6.029C48.236,37.507,48.621,37.892,49.094,37.892z M49.951,31.862h2.305v4.315h-2.305V31.862z"
		/>
	<path fill="#E97E26" d="M43.064,0H16.936c-0.473,0-0.857,0.385-0.857,0.857v52.256c0,0.473,0.384,0.857,0.857,0.857
		s0.857-0.385,0.857-0.857V1.714h24.414v51.399c0,0.473,0.385,0.857,0.857,0.857s0.856-0.385,0.856-0.857V0.857
		c0-0.229-0.089-0.444-0.251-0.606C43.508,0.089,43.293,0,43.064,0z"/>
</g>
</svg>
