<?xml version="1.0" encoding="utf-8"?>
<!-- Generator: Adobe Illustrator 16.0.0, SVG Export Plug-In . SVG Version: 6.00 Build 0)  -->
<!DOCTYPE svg PUBLIC "-//W3C//DTD SVG 1.1//EN" "http://www.w3.org/Graphics/SVG/1.1/DTD/svg11.dtd">
<svg version="1.1" id="Capa_1" xmlns="http://www.w3.org/2000/svg" xmlns:xlink="http://www.w3.org/1999/xlink" x="0px" y="0px"
	 width="612px" height="792px" viewBox="0 0 612 792" enable-background="new 0 0 612 792" xml:space="preserve">
<path fill="#EA7E26" d="M600.046,681.094h-55.594v-97.43c0-4.937-4.017-8.952-8.953-8.952s-8.953,4.016-8.953,8.952v97.43H377.109
	V450.985c0-4.937-4.017-8.953-8.953-8.953H243.844c-4.937,0-8.953,4.017-8.953,8.953v230.108H85.454V404.953h7.6
	c2.391,0,4.639-0.932,6.331-2.623L306,195.715l206.615,206.616c1.692,1.69,3.941,2.622,6.331,2.622h7.6v92.648
	c0,4.937,4.017,8.953,8.953,8.953s8.953-4.017,8.953-8.953v-92.648h55.594c3.634,0,6.881-2.169,8.271-5.526
	c1.391-3.357,0.629-7.187-1.941-9.758L312.331,95.624c-1.691-1.691-3.94-2.622-6.331-2.622c-2.392,0-4.641,0.931-6.333,2.623
	L187.31,207.982c-1.691,1.691-2.623,3.939-2.623,6.331c0,2.391,0.931,4.64,2.622,6.33c1.692,1.692,3.94,2.623,6.332,2.623
	c2.391,0,4.64-0.931,6.331-2.623L306,114.616l272.43,272.431h-55.775l-0.878-0.878L312.331,176.723
	c-1.691-1.691-3.94-2.623-6.331-2.623c-2.392,0-4.64,0.932-6.332,2.623L89.344,387.047H33.569l99.466-99.465
	c3.491-3.49,3.491-9.171,0-12.663c-1.69-1.69-3.939-2.622-6.331-2.622c-2.392,0-4.64,0.931-6.332,2.622L5.622,389.669
	c-2.569,2.571-3.331,6.401-1.941,9.757c1.391,3.358,4.638,5.527,8.273,5.527h55.594v276.14H11.954c-4.937,0-8.953,4.017-8.953,8.953
	s4.016,8.953,8.953,8.953h588.092c4.937,0,8.953-4.017,8.953-8.953S604.982,681.094,600.046,681.094z M359.203,681.094H252.797
	V459.938h106.406V681.094z"/>
<path fill="#EA7E26" d="M418.359,442.032c-4.937,0-8.953,4.017-8.953,8.953v119.531c0,4.937,4.017,8.952,8.953,8.952h66.937
	c4.937,0,8.953-4.016,8.953-8.952V450.985c0-4.937-4.017-8.953-8.953-8.953H418.359z M476.343,561.563h-49.03V459.938h49.03V561.563
	z"/>
<path fill="#EA7E26" d="M126.704,442.032c-4.937,0-8.953,4.017-8.953,8.953v119.531c0,4.937,4.016,8.952,8.953,8.952h66.938
	c4.937,0,8.953-4.016,8.953-8.952V450.985c0-4.937-4.017-8.953-8.953-8.953H126.704z M184.688,561.563h-49.031V459.938h49.031
	V561.563z"/>
<path fill="#EA7E26" d="M254.016,341.399c0,28.664,23.32,51.984,51.984,51.984s51.984-23.32,51.984-51.984
	s-23.32-51.984-51.984-51.984S254.016,312.735,254.016,341.399z M340.078,341.399c0,18.791-15.287,34.078-34.078,34.078
	c-18.791,0-34.078-15.288-34.078-34.078s15.288-34.078,34.078-34.078C324.791,307.321,340.078,322.609,340.078,341.399z"/>
<path fill="#EA7E26" d="M283.289,579.469c2.356,0,4.662-0.956,6.328-2.623c1.669-1.668,2.625-3.975,2.625-6.329
	c0-2.355-0.957-4.662-2.625-6.329c-1.667-1.668-3.973-2.624-6.329-2.624c-2.355,0-4.663,0.956-6.329,2.623
	c-1.667,1.668-2.624,3.976-2.624,6.33c0,2.356,0.956,4.662,2.623,6.328C278.627,578.513,280.935,579.469,283.289,579.469z"/>
<path fill="#EA7E26" d="M158.977,257.932c2.355,0,4.662-0.956,6.328-2.624c1.668-1.668,2.625-3.975,2.625-6.33
	c0-2.355-0.957-4.663-2.625-6.33c-1.667-1.667-3.973-2.624-6.329-2.624s-4.662,0.956-6.33,2.623
	c-1.667,1.668-2.624,3.975-2.624,6.33c0,2.356,0.956,4.663,2.623,6.329C154.316,256.975,156.623,257.932,158.977,257.932z"/>
<path fill="#EA7E26" d="M529.169,531.111c-1.665,1.675-2.623,3.983-2.623,6.329c0,2.354,0.958,4.668,2.629,6.347
	c1.654,1.654,3.961,2.606,6.324,2.606s4.67-0.952,6.328-2.611c1.666-1.676,2.625-3.989,2.625-6.342c0-2.355-0.956-4.662-2.624-6.328
	c-1.668-1.669-3.975-2.625-6.329-2.625S530.837,529.443,529.169,531.111z"/>
</svg>
