<?xml version="1.0" encoding="utf-8"?>
<!-- Generator: Adobe Illustrator 16.0.0, SVG Export Plug-In . SVG Version: 6.00 Build 0)  -->
<!DOCTYPE svg PUBLIC "-//W3C//DTD SVG 1.1//EN" "http://www.w3.org/Graphics/SVG/1.1/DTD/svg11.dtd">
<svg version="1.1" id="Layer_1" xmlns="http://www.w3.org/2000/svg" xmlns:xlink="http://www.w3.org/1999/xlink" x="0px" y="0px"
	 width="65px" height="60px" viewBox="0 0 65 60" enable-background="new 0 0 65 60" xml:space="preserve">
<g>
	<path fill="#E97E26" d="M64.318,58.504h-2.331V31.262h2.331c0.272,0,0.524-0.149,0.655-0.389c0.132-0.239,0.122-0.531-0.024-0.762
		l-7.185-11.29c-0.138-0.217-0.374-0.347-0.631-0.347H37.942l-4.694-4.693V9.707h9.516c0.276,0,0.529-0.151,0.66-0.395
		c0.13-0.244,0.116-0.538-0.037-0.768L41.61,5.88l1.776-2.664c0.153-0.23,0.167-0.524,0.037-0.768
		c-0.131-0.244-0.384-0.395-0.66-0.395h-9.516V0.748C33.248,0.335,32.912,0,32.5,0s-0.748,0.335-0.748,0.748v13.033l-4.693,4.694
		H7.866c-0.257,0-0.492,0.129-0.631,0.346L0.051,30.112c-0.146,0.23-0.156,0.522-0.024,0.762c0.131,0.239,0.383,0.388,0.655,0.388
		h2.331v27.242H0.682c-0.412,0-0.748,0.336-0.748,0.748S0.27,60,0.682,60h63.637c0.412,0,0.748-0.336,0.748-0.748
		S64.73,58.504,64.318,58.504z M33.248,3.549h8.118l-1.277,1.916c-0.168,0.252-0.168,0.578,0,0.83l1.277,1.916h-8.118V3.549z
		 M56.723,19.971l6.233,9.794H49.232l-9.795-9.794H56.723z M2.045,29.765l6.232-9.794h17.285l-9.795,9.794H2.045z M31.752,58.504
		H27.09v-10.82h4.662V58.504z M37.91,58.504h-4.662v-10.82h4.662V58.504z M37.91,46.188H27.09v-1.305
		c0-0.72,0.585-1.305,1.305-1.305h8.211c0.72,0,1.305,0.585,1.305,1.305V46.188z M60.491,58.504H39.406V44.883
		c0-1.545-1.256-2.801-2.801-2.801h-8.211c-1.545,0-2.801,1.256-2.801,2.801v13.621H4.509V31.262h11.568
		c0.025,0,0.05-0.002,0.074-0.004l0.048-0.008c0.008-0.001,0.017-0.002,0.024-0.003c0.008-0.002,0.014-0.004,0.021-0.005
		l0.028-0.008c0.008-0.002,0.017-0.004,0.024-0.006c0.005-0.002,0.012-0.004,0.019-0.007l0.028-0.01
		c0.007-0.003,0.014-0.005,0.021-0.008s0.013-0.006,0.02-0.009l0.025-0.013c0.007-0.003,0.015-0.006,0.021-0.01l0.031-0.019
		c0.016-0.01,0.023-0.014,0.03-0.019c0.009-0.006,0.018-0.013,0.025-0.019l0.033-0.024c0.021-0.017,0.038-0.033,0.056-0.051
		L32.5,15.149l15.894,15.893c0.018,0.018,0.036,0.034,0.056,0.05l0.036,0.027c0.007,0.005,0.014,0.011,0.021,0.016
		s0.015,0.009,0.021,0.014l0.023,0.014c0.006,0.004,0.012,0.008,0.019,0.011c0.007,0.004,0.016,0.008,0.023,0.012l0.02,0.009
		c0.008,0.004,0.016,0.008,0.022,0.011s0.014,0.005,0.02,0.007l0.026,0.01c0.008,0.003,0.016,0.006,0.023,0.009
		c0.007,0.002,0.014,0.003,0.021,0.005l0.027,0.007c0.008,0.002,0.015,0.004,0.022,0.006c0.009,0.001,0.018,0.003,0.026,0.004
		l0.046,0.007c0.025,0.002,0.05,0.003,0.074,0.003h11.569V58.504z"/>
	<path fill="#E97E26" d="M32.5,38.446c3.809,0,6.906-3.099,6.906-6.906c0-3.809-3.098-6.907-6.906-6.907s-6.906,3.098-6.906,6.907
		C25.594,35.348,28.691,38.446,32.5,38.446z M32.5,26.129c2.983,0,5.41,2.427,5.41,5.411c0,2.982-2.427,5.41-5.41,5.41
		s-5.41-2.428-5.41-5.41C27.09,28.556,29.517,26.129,32.5,26.129z"/>
	<path fill="#E97E26" d="M32.5,32.287c0.413,0,0.748-0.335,0.748-0.747v-3.08c0-0.413-0.335-0.748-0.748-0.748
		c-0.412,0-0.748,0.335-0.748,0.748v2.331h-2.331c-0.412,0-0.748,0.335-0.748,0.749c0,0.412,0.336,0.747,0.748,0.747H32.5z"/>
	<path fill="#E97E26" d="M22.236,47.214h-5.132c-0.413,0-0.748,0.335-0.748,0.748v6.158c0,0.412,0.335,0.748,0.748,0.748h5.132
		c0.412,0,0.748-0.336,0.748-0.748v-6.158C22.984,47.549,22.648,47.214,22.236,47.214z M21.488,53.372h-3.636v-1.583h3.636V53.372z
		 M21.488,50.293h-3.636V48.71h3.636V50.293z"/>
	<path fill="#E97E26" d="M12.999,47.214H7.866c-0.412,0-0.747,0.335-0.747,0.748v6.158c0,0.412,0.335,0.748,0.747,0.748h5.133
		c0.412,0,0.748-0.336,0.748-0.748v-6.158C13.747,47.549,13.411,47.214,12.999,47.214z M12.251,53.372H8.614v-1.583h3.637V53.372z
		 M12.251,50.293H8.614V48.71h3.637V50.293z"/>
	<path fill="#E97E26" d="M17.104,43.578h5.132c0.412,0,0.748-0.336,0.748-0.748v-6.864c0-0.589-0.479-1.068-1.069-1.068h-4.49
		c-0.589,0-1.068,0.479-1.068,1.068v6.864C16.356,43.242,16.691,43.578,17.104,43.578z M17.853,36.394h3.636v2.609h-3.636V36.394z
		 M17.853,40.499h3.636v1.583h-3.636V40.499z"/>
	<path fill="#E97E26" d="M12.678,34.897h-4.49c-0.59,0-1.068,0.479-1.068,1.068v6.864c0,0.412,0.335,0.748,0.747,0.748h5.133
		c0.412,0,0.748-0.336,0.748-0.748v-6.864C13.747,35.377,13.268,34.897,12.678,34.897z M12.251,42.082H8.614v-1.583h3.637V42.082z
		 M12.251,39.003H8.614v-2.609h3.637V39.003z"/>
	<path fill="#E97E26" d="M52.002,54.868h5.132c0.412,0,0.748-0.336,0.748-0.748v-6.158c0-0.413-0.336-0.748-0.748-0.748h-5.132
		c-0.413,0-0.748,0.335-0.748,0.748v6.158C51.254,54.532,51.589,54.868,52.002,54.868z M52.75,48.71h3.636v1.583H52.75V48.71z
		 M52.75,51.789h3.636v1.583H52.75V51.789z"/>
	<path fill="#E97E26" d="M42.764,54.868h5.132c0.413,0,0.748-0.336,0.748-0.748v-6.158c0-0.413-0.335-0.748-0.748-0.748h-5.132
		c-0.412,0-0.748,0.335-0.748,0.748v6.158C42.016,54.532,42.352,54.868,42.764,54.868z M43.512,48.71h3.637v1.583h-3.637V48.71z
		 M43.512,51.789h3.637v1.583h-3.637V51.789z"/>
	<path fill="#E97E26" d="M52.002,43.578h5.132c0.412,0,0.748-0.336,0.748-0.748v-6.864c0-0.589-0.479-1.068-1.069-1.068h-4.49
		c-0.589,0-1.068,0.479-1.068,1.068v6.864C51.254,43.242,51.589,43.578,52.002,43.578z M52.75,36.394h3.636v2.609H52.75V36.394z
		 M52.75,40.499h3.636v1.583H52.75V40.499z"/>
	<path fill="#E97E26" d="M42.764,43.578h5.132c0.413,0,0.748-0.336,0.748-0.748v-6.864c0-0.589-0.479-1.068-1.068-1.068h-4.49
		c-0.59,0-1.069,0.479-1.069,1.068v6.864C42.016,43.242,42.352,43.578,42.764,43.578z M43.512,36.394h3.637v2.609h-3.637V36.394z
		 M43.512,40.499h3.637v1.583h-3.637V40.499z"/>
</g>
</svg>
