<?xml version="1.0" encoding="utf-8"?>
<!-- Generator: Adobe Illustrator 16.0.0, SVG Export Plug-In . SVG Version: 6.00 Build 0)  -->
<!DOCTYPE svg PUBLIC "-//W3C//DTD SVG 1.1//EN" "http://www.w3.org/Graphics/SVG/1.1/DTD/svg11.dtd">
<svg version="1.1" id="Layer_1" xmlns="http://www.w3.org/2000/svg" xmlns:xlink="http://www.w3.org/1999/xlink" x="0px" y="0px"
	 width="69px" height="60px" viewBox="0 0 69 60" enable-background="new 0 0 69 60" xml:space="preserve">
<g>
	<path fill="#E97E26" d="M68.616,12.712c0-1.469-0.943-2.747-2.348-3.179l-0.029-0.008L39.158,0.702C37.634,0.235,36.07,0,34.5,0
		s-3.134,0.235-4.647,0.699L2.758,9.526L2.731,9.533c-1.404,0.432-2.348,1.71-2.348,3.179c0,0.073,0.01,0.148,0.031,0.225
		l0.028,0.102l-0.028,0.103c-0.021,0.076-0.031,0.151-0.031,0.224v1.241c0,1.837,1.495,3.332,3.332,3.332h14.772
		c0.82,0,1.608-0.302,2.221-0.851l0.26-0.233l0.26,0.233c0.612,0.549,1.401,0.851,2.221,0.851h10.199V39.69H20.855
		c-0.469,0-0.851,0.382-0.851,0.852c0,0.469,0.382,0.851,0.851,0.851h10.313v1.63c0,1.407,0.893,2.67,2.222,3.142l0.259,0.092v7.133
		l-0.312,0.063c-2.695,0.55-4.65,2.945-4.65,5.696c0,0.47,0.382,0.852,0.851,0.852c0.47,0,0.852-0.382,0.852-0.852
		c0-1.736,1.101-3.294,2.74-3.875l0.52-0.184v4.059c0,0.47,0.382,0.852,0.851,0.852c0.469,0,0.852-0.382,0.852-0.852V55.09
		l0.519,0.184c1.64,0.581,2.74,2.139,2.74,3.875c0,0.47,0.382,0.852,0.852,0.852c0.469,0,0.852-0.382,0.852-0.852
		c0-2.752-1.956-5.147-4.65-5.696l-0.312-0.063v-7.133l0.259-0.092c1.329-0.472,2.222-1.734,2.222-3.142v-1.63h10.313
		c0.47,0,0.852-0.382,0.852-0.851c0-0.47-0.382-0.852-0.852-0.852H35.352V17.938h10.199c0.819,0,1.608-0.302,2.221-0.851l0.26-0.233
		l0.26,0.233c0.612,0.549,1.401,0.851,2.222,0.851h14.771c1.837,0,3.332-1.495,3.332-3.332v-1.241c0-0.073-0.011-0.148-0.031-0.224
		l-0.027-0.103l0.027-0.102C68.605,12.861,68.616,12.785,68.616,12.712z M34.498,1.79c0.844,0,1.676,0.294,2.343,0.828
		c0.019,0.015,0.037,0.028,0.057,0.042l8.348,7.374h-21.34C23.905,10.033,33.657,1.79,34.498,1.79z M20.117,14.606
		c0,0.898-0.731,1.629-1.629,1.629H3.716c-0.898,0-1.629-0.731-1.629-1.629v-1.241c0-0.073-0.011-0.148-0.031-0.224l-0.028-0.103
		l0.028-0.102c0.021-0.076,0.031-0.151,0.031-0.225c0-0.267,0.067-0.534,0.196-0.772l0.11-0.205h17.725V14.606z M20.818,9.973
		l-0.095,0.06H7.357l22.055-7.449C29.413,2.584,22.091,9.171,20.818,9.973z M36.13,41.393v1.63c0,0.898-0.731,1.63-1.63,1.63
		s-1.629-0.731-1.629-1.63v-1.63H36.13z M47.18,14.606c0,0.898-0.73,1.629-1.629,1.629H23.45c-0.899,0-1.63-0.731-1.63-1.629v-2.87
		h25.36V14.606z M66.945,13.142c-0.021,0.076-0.031,0.151-0.031,0.224v1.241c0,0.898-0.731,1.629-1.63,1.629H50.513
		c-0.899,0-1.63-0.731-1.63-1.629v-2.87h1.63c0.469,0,0.851-0.382,0.851-0.851c0-0.47-0.382-0.852-0.851-0.852h-2.222l-8.29-7.336
		l21.642,7.336h-6.169c-0.469,0-0.851,0.382-0.851,0.852c0,0.469,0.382,0.851,0.851,0.851h11.134l0.11,0.204
		c0.128,0.237,0.196,0.504,0.196,0.772c0,0.073,0.01,0.148,0.031,0.225l0.027,0.102L66.945,13.142z"/>
	<path fill="#E97E26" d="M19.226,51.635v-5.821c0-0.641-0.521-1.161-1.162-1.161H5.581V35.58c0-1.838-1.495-3.332-3.332-3.332
		c-0.47,0-0.852,0.382-0.852,0.851c0,0.47,0.382,0.852,0.852,0.852c0.898,0,1.629,0.731,1.629,1.63v16.055l-1.229,7.374
		c-0.038,0.224,0.015,0.449,0.146,0.635c0.132,0.185,0.329,0.307,0.553,0.345C3.396,59.996,3.443,60,3.49,60
		c0.417,0,0.77-0.3,0.838-0.712l1.122-6.731h12.203l1.122,6.731C18.844,59.7,19.196,60,19.613,60c0.047,0,0.095-0.004,0.142-0.012
		c0.224-0.038,0.42-0.16,0.553-0.345c0.132-0.186,0.184-0.411,0.146-0.635L19.226,51.635z M17.523,50.854H5.581v-4.5h11.942V50.854z
		"/>
	<path fill="#E97E26" d="M66.752,32.248c-1.838,0-3.333,1.494-3.333,3.332v9.072H50.936c-0.64,0-1.161,0.521-1.161,1.161v5.821
		l-1.229,7.374c-0.077,0.463,0.236,0.902,0.699,0.979C49.292,59.996,49.34,60,49.387,60c0.417,0,0.77-0.3,0.838-0.712l1.122-6.731
		H63.55l1.121,6.731C64.74,59.7,65.093,60,65.51,60c0.047,0,0.095-0.004,0.142-0.012c0.463-0.077,0.776-0.517,0.699-0.979
		l-1.229-7.374V35.58c0-0.898,0.731-1.63,1.63-1.63c0.469,0,0.851-0.382,0.851-0.852C67.603,32.63,67.221,32.248,66.752,32.248z
		 M63.419,50.854H51.477v-4.5h11.942V50.854z"/>
</g>
</svg>
