<?xml version="1.0" encoding="utf-8"?>
<!-- Generator: Adobe Illustrator 16.0.0, SVG Export Plug-In . SVG Version: 6.00 Build 0)  -->
<!DOCTYPE svg PUBLIC "-//W3C//DTD SVG 1.1//EN" "http://www.w3.org/Graphics/SVG/1.1/DTD/svg11.dtd">
<svg version="1.1" id="Layer_1" xmlns="http://www.w3.org/2000/svg" xmlns:xlink="http://www.w3.org/1999/xlink" x="0px" y="0px"
	 width="60px" height="60px" viewBox="0 0 60 60" enable-background="new 0 0 60 60" xml:space="preserve">
<g>
	<path fill="#E97E26" d="M58.399,60L46.726,49.113H60V7.258H45.424V0H14.577v7.258H0v41.855h13.274L1.601,60H58.399z M45.424,8.952
		h12.883v20.081H45.424V8.952z M45.424,30.726h12.883v16.693h-5.625V40.04h-1.693v7.379h-5.564V30.726z M16.27,1.693h27.459v20.081
		H16.27V1.693z M16.27,23.468h27.459v23.951h-5.564V29.032H21.834v18.387H16.27V23.468z M36.472,30.726v16.693h-5.625V30.726H36.472
		z M29.153,30.726v16.693h-5.625V30.726H29.153z M1.693,8.952h12.883v20.081H1.693V8.952z M9.012,47.419V40.04H7.318v7.379H1.693
		V30.726h12.883v16.693H9.012z M15.757,49.113h28.486l9.857,9.193H5.899L15.757,49.113z"/>
	<path fill="#E97E26" d="M21.834,16.209h16.331V7.258H21.834V16.209z M23.528,8.952h12.943v5.564H23.528V8.952z"/>
</g>
</svg>
