<?xml version="1.0" encoding="utf-8"?>
<!-- Generator: Adobe Illustrator 16.0.0, SVG Export Plug-In . SVG Version: 6.00 Build 0)  -->
<!DOCTYPE svg PUBLIC "-//W3C//DTD SVG 1.1//EN" "http://www.w3.org/Graphics/SVG/1.1/DTD/svg11.dtd">
<svg version="1.1" id="Layer_1" xmlns="http://www.w3.org/2000/svg" xmlns:xlink="http://www.w3.org/1999/xlink" x="0px" y="0px"
	 width="55px" height="60px" viewBox="0 0 55 60" enable-background="new 0 0 55 60" xml:space="preserve">
<g>
	<path fill="#E97E26" d="M17.686,15.328c0,0.521,0.424,0.945,0.944,0.945c0.521,0,0.945-0.424,0.945-0.945
		c0-0.665,0.49-1.029,1.355-1.614c0.975-0.66,2.188-1.48,2.188-3.18s-1.212-2.521-2.187-3.18c-0.866-0.586-1.356-0.95-1.356-1.615
		s0.49-1.028,1.355-1.614c0.976-0.659,2.188-1.479,2.188-3.18C23.118,0.424,22.694,0,22.174,0c-0.521,0-0.945,0.424-0.945,0.945
		c0,0.665-0.49,1.028-1.356,1.614c-0.975,0.66-2.187,1.48-2.187,3.18c0,1.701,1.212,2.521,2.187,3.18
		c0.866,0.586,1.356,0.95,1.356,1.615c0,0.664-0.49,1.028-1.356,1.614C18.897,12.808,17.686,13.628,17.686,15.328z"/>
	<path fill="#E97E26" d="M28.02,8.918c0.867,0.587,1.357,0.951,1.357,1.615c0,0.665-0.49,1.029-1.357,1.615
		c-0.975,0.66-2.187,1.48-2.187,3.18c0,0.521,0.424,0.945,0.945,0.945c0.521,0,0.944-0.424,0.944-0.945
		c0-0.665,0.49-1.029,1.356-1.614c0.975-0.66,2.188-1.48,2.188-3.18s-1.213-2.521-2.187-3.18c-0.867-0.586-1.357-0.95-1.357-1.615
		c0-0.664,0.49-1.028,1.356-1.614c0.975-0.659,2.188-1.479,2.188-3.18C31.267,0.424,30.842,0,30.321,0s-0.944,0.424-0.944,0.945
		c0,0.665-0.49,1.028-1.357,1.614c-0.975,0.66-2.187,1.48-2.187,3.18C25.833,7.439,27.046,8.259,28.02,8.918z"/>
	<path fill="#E97E26" d="M33.98,15.328c0,0.521,0.424,0.945,0.945,0.945s0.945-0.424,0.945-0.945c0-0.665,0.49-1.028,1.355-1.614
		c0.975-0.66,2.188-1.48,2.188-3.18s-1.212-2.52-2.186-3.179c-0.867-0.587-1.357-0.951-1.357-1.615c0-0.664,0.49-1.028,1.355-1.614
		c0.976-0.66,2.188-1.48,2.188-3.18C39.414,0.424,38.99,0,38.469,0c-0.521,0-0.944,0.424-0.944,0.945
		c0,0.665-0.49,1.028-1.356,1.614c-0.975,0.66-2.188,1.48-2.188,3.18c0,1.7,1.213,2.52,2.187,3.179
		c0.867,0.587,1.357,0.951,1.357,1.616c0,0.664-0.49,1.028-1.356,1.614C35.193,12.808,33.98,13.628,33.98,15.328z"/>
	<path fill="#E97E26" d="M53.687,27.1h-4.599l0.045-0.274c0.135-0.836,0.223-1.689,0.26-2.537l0.006-0.16l0.151-0.053
		c1.305-0.456,2.182-1.688,2.182-3.068c0-1.792-1.458-3.25-3.251-3.25H6.52c-1.792,0-3.25,1.458-3.25,3.25
		c0,1.38,0.876,2.613,2.181,3.068l0.151,0.053l0.007,0.16c0.037,0.848,0.125,1.701,0.26,2.537L5.912,27.1H1.314
		c-0.521,0-0.945,0.424-0.945,0.945s0.424,0.945,0.945,0.945h5.017l0.048,0.173c1.587,5.721,5.507,10.624,10.755,13.454l0.207,0.111
		L9.145,58.11H7.206c-0.521,0-0.945,0.424-0.945,0.944C6.261,59.576,6.685,60,7.206,60h5.012c0.521,0,0.944-0.424,0.944-0.945
		c0-0.521-0.424-0.944-0.944-0.944h-0.932l4.545-8.529h23.62l4.545,8.529h-1.213c-0.521,0-0.945,0.424-0.945,0.944
		c0,0.521,0.424,0.945,0.945,0.945h5.012c0.521,0,0.944-0.424,0.944-0.945c0-0.521-0.424-0.944-0.944-0.944h-1.658l-8.259-15.499
		l0.203-0.113c5.137-2.844,8.979-7.705,10.54-13.335l0.048-0.173h5.018c0.521,0,0.944-0.424,0.944-0.945S54.207,27.1,53.687,27.1z
		 M38.443,47.691H16.838l2.215-4.157l0.197,0.08c2.625,1.071,5.4,1.613,8.25,1.613c2.938,0,5.789-0.574,8.479-1.707l0.199-0.083
		L38.443,47.691z M47.49,24.508c-0.625,10.559-9.404,18.83-19.99,18.83c-10.585,0-19.365-8.271-19.989-18.83l-0.016-0.25h40.01
		L47.49,24.508z M48.48,22.369H6.52c-0.75,0-1.36-0.61-1.36-1.361c0-0.75,0.61-1.36,1.36-1.36H48.48c0.75,0,1.361,0.61,1.361,1.36
		C49.842,21.758,49.23,22.369,48.48,22.369z"/>
	<path fill="#E97E26" d="M42.316,32.569c0.135-0.214,0.178-0.468,0.121-0.714s-0.206-0.455-0.42-0.589
		c-0.15-0.095-0.324-0.145-0.5-0.145c-0.328,0-0.629,0.166-0.802,0.443c-2.878,4.591-7.818,7.332-13.216,7.332
		c-0.521,0-0.945,0.424-0.945,0.945c0,0.521,0.425,0.944,0.945,0.944C33.553,40.787,39.092,37.715,42.316,32.569z"/>
	<path fill="#E97E26" d="M43.477,28.69c0.375-0.024,0.711-0.281,0.834-0.639c0.131-0.381-0.01-0.829-0.335-1.064
		c-0.16-0.116-0.359-0.18-0.562-0.18c-0.172,0-0.338,0.045-0.482,0.131c-0.393,0.235-0.563,0.749-0.387,1.171
		C42.698,28.475,43.076,28.716,43.477,28.69z"/>
</g>
</svg>
