<?xml version="1.0" encoding="utf-8"?>
<!-- Generator: Adobe Illustrator 16.0.0, SVG Export Plug-In . SVG Version: 6.00 Build 0)  -->
<!DOCTYPE svg PUBLIC "-//W3C//DTD SVG 1.1//EN" "http://www.w3.org/Graphics/SVG/1.1/DTD/svg11.dtd">
<svg version="1.1" id="Layer_1" xmlns="http://www.w3.org/2000/svg" xmlns:xlink="http://www.w3.org/1999/xlink" x="0px" y="0px"
	 width="61px" height="60px" viewBox="0 0 61 60" enable-background="new 0 0 61 60" xml:space="preserve">
<g>
	<path fill="#E97E26" d="M59.911,53.067H56.24V41.068c0-2.455-1.997-4.452-4.452-4.452h-1.763V24.119
		c0-2.18-1.773-3.954-3.953-3.954H33.923V10.06c0-0.387-0.314-0.702-0.701-0.702h-2.02v-2.01l0.207-0.066
		c1.241-0.398,2.075-1.541,2.075-2.843c0-1.132-1.274-2.919-2.469-4.213C30.883,0.083,30.695,0,30.5,0s-0.383,0.083-0.516,0.226
		c-1.193,1.294-2.469,3.081-2.469,4.213c0,1.302,0.834,2.445,2.075,2.843l0.208,0.066v2.01h-2.02c-0.388,0-0.702,0.315-0.702,0.702
		v10.105H14.928c-2.18,0-3.953,1.773-3.953,3.953v8.799c0,0.388,0.314,0.702,0.701,0.702c0.388,0,0.702-0.314,0.702-0.702v-8.799
		c0-1.406,1.144-2.549,2.55-2.549h31.145c1.406,0,2.55,1.144,2.55,2.549v12.497H9.212c-2.455,0-4.452,1.997-4.452,4.452v8.207
		c0,0.387,0.315,0.701,0.702,0.701s0.702-0.314,0.702-0.701v-8.207c0-1.681,1.367-3.048,3.048-3.048h42.576
		c1.681,0,3.048,1.367,3.048,3.048v11.999H1.089c-0.388,0-0.702,0.315-0.702,0.702c0,3.436,2.795,6.23,6.23,6.23h47.766
		c3.436,0,6.23-2.795,6.23-6.23C60.613,53.382,60.299,53.067,59.911,53.067z M28.919,4.439c0-0.634,1.122-2.092,1.347-2.378
		L30.5,1.763l0.234,0.298c0.225,0.286,1.347,1.745,1.347,2.378c0,0.872-0.709,1.581-1.581,1.581
		C29.629,6.021,28.919,5.311,28.919,4.439z M32.52,20.166H28.48v-9.403h4.039V20.166z M59.091,54.835
		c-0.493,2.18-2.473,3.761-4.708,3.761H6.617c-2.235,0-4.215-1.581-4.708-3.761l-0.082-0.363h57.347L59.091,54.835z"/>
	<path fill="#E97E26" d="M23.595,27.691c0.78-0.855,1.307-1.374,2.024-1.38c0.742,0,1.308,0.581,1.961,1.253
		c0.784,0.805,1.672,1.717,3.049,1.717c1.372-0.001,2.279-0.901,3.08-1.694c0.745-0.739,1.242-1.188,1.854-1.188h0.029
		c0.652,0.019,1.115,0.581,1.652,1.232c0.659,0.799,1.406,1.705,2.689,1.742c0.029,0.001,0.058,0.001,0.086,0.001
		c1.238,0,2.107-0.858,2.875-1.614l0.01-0.01c0.795-0.783,1.325-1.259,1.995-1.259h0.039c0.389,0,0.698-0.303,0.705-0.689
		c0.006-0.387-0.304-0.708-0.69-0.714l-0.046,0c-1.303,0-2.237,0.922-2.988,1.664c-0.748,0.737-1.284,1.22-1.911,1.22l-0.032,0
		c-0.648-0.019-1.112-0.581-1.648-1.232c-0.659-0.799-1.405-1.704-2.689-1.742c-0.027-0.001-0.056-0.001-0.083-0.001
		c-1.227,0-2.044,0.811-2.835,1.595c-0.809,0.801-1.352,1.287-2.09,1.288c-0.732,0-1.285-0.512-2.044-1.292
		c-0.766-0.786-1.633-1.678-2.955-1.678h-0.024c-1.383,0.012-2.269,0.982-3.05,1.837c-0.756,0.828-1.263,1.331-1.925,1.331
		c-0.668-0.002-1.164-0.506-1.903-1.337c-0.74-0.833-1.579-1.777-2.884-1.777h-0.017c-0.186,0.001-0.361,0.075-0.493,0.208
		s-0.204,0.31-0.203,0.498c0.003,0.385,0.317,0.698,0.702,0.698h0.013l0,0c0.627,0,1.111,0.494,1.833,1.306
		c0.752,0.846,1.604,1.804,2.945,1.808l0.008,0.298v-0.298C21.963,29.479,22.83,28.529,23.595,27.691z"/>
	<path fill="#E97E26" d="M49.557,44.367c0.828-0.821,1.382-1.32,2.082-1.32l0.057,0.001c0.382,0,0.688-0.299,0.7-0.682
		c0.005-0.187-0.063-0.365-0.191-0.502c-0.128-0.136-0.303-0.214-0.49-0.22c-0.031-0.001-0.062-0.001-0.092-0.001
		c-1.313,0-2.194,0.875-3.048,1.721l-0.007,0.008c-0.737,0.73-1.433,1.42-2.321,1.426c-0.764-0.017-1.286-0.601-1.892-1.277
		c-0.734-0.82-1.567-1.751-2.982-1.775l-0.054-0.001c-1.394,0-2.406,0.999-3.22,1.801c-0.737,0.727-1.373,1.354-2.139,1.354
		l-0.036-0.001c-0.738-0.021-1.255-0.647-1.853-1.372c-0.712-0.863-1.519-1.842-2.894-1.882c-0.031-0.001-0.062-0.002-0.092-0.002
		c-1.312,0-2.195,0.877-3.05,1.725c-0.743,0.736-1.442,1.43-2.335,1.431c-0.83,0-1.417-0.542-2.285-1.435
		c-0.828-0.851-1.767-1.815-3.186-1.815h-0.026c-1.483,0.013-2.483,1.108-3.288,1.988c-0.84,0.92-1.403,1.478-2.155,1.478
		c-0.759-0.002-1.312-0.563-2.132-1.485c-0.801-0.9-1.708-1.922-3.115-1.922c-0.394,0.002-0.707,0.318-0.704,0.706
		c0.002,0.385,0.316,0.697,0.701,0.697h0.021c0.708,0,1.246,0.549,2.049,1.451c0.813,0.916,1.735,1.953,3.173,1.957l0.009,0.298
		v-0.298c1.425,0,2.322-0.983,3.19-1.935c0.866-0.948,1.451-1.524,2.264-1.532h0.014c0.771,0,1.339,0.526,2.181,1.392
		c0.806,0.828,1.809,1.859,3.289,1.859c1.473-0.002,2.498-1.018,3.321-1.835c0.829-0.821,1.382-1.32,2.079-1.32l0.037,0.001
		c0.737,0.021,1.254,0.647,1.852,1.372c0.712,0.863,1.52,1.842,2.894,1.882c0.031,0.001,0.063,0.001,0.093,0.001
		c1.326,0,2.229-0.89,3.103-1.751l0.024-0.024c0.751-0.74,1.398-1.379,2.212-1.379h0.035c0.802,0.014,1.338,0.614,1.96,1.309
		c0.723,0.808,1.542,1.724,2.918,1.744l0.01,0.299l0.002-0.299C47.708,46.2,48.733,45.184,49.557,44.367z"/>
</g>
</svg>
