<?xml version="1.0" encoding="utf-8"?>
<!-- Generator: Adobe Illustrator 16.0.0, SVG Export Plug-In . SVG Version: 6.00 Build 0)  -->
<!DOCTYPE svg PUBLIC "-//W3C//DTD SVG 1.1//EN" "http://www.w3.org/Graphics/SVG/1.1/DTD/svg11.dtd">
<svg version="1.1" id="Layer_1" xmlns="http://www.w3.org/2000/svg" xmlns:xlink="http://www.w3.org/1999/xlink" x="0px" y="0px"
	 width="60px" height="60px" viewBox="0 0 60 60" enable-background="new 0 0 60 60" xml:space="preserve">
<g>
	<path fill="#E97E26" d="M23.591,15.098c0.724,0.611,1.473,1.242,2.256,1.921c0.143,0.125,0.326,0.193,0.516,0.193
		c0.19,0,0.373-0.068,0.517-0.193c0.798-0.691,1.555-1.33,2.288-1.948c4.218-3.557,7.004-5.907,7.004-9.388
		C36.172,2.497,33.845,0,30.874,0c-1.462,0-2.721,0.582-3.74,1.729l-0.77,0.867l-0.771-0.867C24.574,0.582,23.315,0,21.853,0
		c-2.971,0-5.298,2.497-5.298,5.684C16.555,9.163,19.354,11.524,23.591,15.098z M21.853,1.576c2.683,0,3.646,2.979,3.747,3.318
		l0.008,0.026c0.092,0.348,0.403,0.588,0.756,0.588s0.664-0.241,0.755-0.585l0.007-0.027c0.102-0.342,1.065-3.321,3.748-3.321
		c2.418,0,3.723,2.117,3.723,4.108c0,2.735-2.416,4.777-6.42,8.16l-0.017,0.015c-0.363,0.306-0.739,0.624-1.128,0.956l-0.667,0.567
		l-0.667-0.567c-0.359-0.305-0.705-0.599-1.039-0.881l-0.019-0.015c-4.197-3.553-6.509-5.51-6.509-8.234
		C18.131,3.692,19.436,1.576,21.853,1.576z"/>
	<path fill="#E97E26" d="M44.545,14.667c-8.454,0-15.333,6.878-15.333,15.333v10.121h-8.593l1.255-1.653
		c1.058-1.394,1.641-3.109,1.641-4.831v-7.273c0-4.445-3.616-8.061-8.061-8.061H4.545c-0.435,0-0.788,0.353-0.788,0.788
		c0,2.553,1.176,4.902,3.226,6.445l0.411,0.309v7.792c0,1.721,0.583,3.437,1.641,4.831l1.255,1.653H4.545
		C2.082,40.121,0,42.147,0,44.545v14.667C0,59.646,0.354,60,0.788,60h58.424C59.646,60,60,59.646,60,59.212V30
		C60,21.545,53.067,14.667,44.545,14.667z M5.704,21.253l-0.487-1.375h10.238c2.74,0,5.197,1.737,6.114,4.322l0.488,1.375H11.818
		C9.078,25.576,6.621,23.839,5.704,21.253z M14.667,58.424H8.97v-6.605c0-0.435-0.354-0.788-0.788-0.788
		c-0.434,0-0.788,0.354-0.788,0.788v6.605H1.576V44.545c0-1.544,1.36-2.848,2.97-2.848h6.786l3.335,6.67V58.424z M12.606,40.724
		V40.48c0-0.053,0.001-0.109,0.002-0.169c0.01-0.595-0.024-0.877-0.393-1.092c-2.032-1.184-3.245-3.271-3.245-5.583v-6.899
		l1.236,0.252c0.527,0.108,1.069,0.162,1.612,0.162h10.121v6.485c0,2.313-1.213,4.399-3.245,5.583
		c-0.368,0.214-0.402,0.498-0.393,1.096c0.001,0.058,0.002,0.113,0.002,0.165v0.243l-2.849,5.696L12.606,40.724z M29.212,58.424
		h-5.697v-6.605c0-0.435-0.354-0.788-0.788-0.788c-0.434,0-0.788,0.354-0.788,0.788v6.605h-5.697V48.367l3.335-6.67h6.786
		c1.571,0,2.848,1.277,2.848,2.848V58.424z M44.545,16.242c1.571,0,2.849,1.278,2.849,2.849s-1.277,2.849-2.849,2.849
		c-1.57,0-2.848-1.278-2.848-2.849S42.975,16.242,44.545,16.242z M50.563,27.818l0.525,1.394h-6.543
		c-1.835,0-3.595-0.787-4.829-2.16l-0.618-0.688l0.618-0.688c0.206-0.23,0.412-0.433,0.631-0.618
		c1.185-1.007,2.632-1.541,4.184-1.542l0.029,0C47.268,23.526,49.566,25.175,50.563,27.818z M30.788,30
		c0-5.293,3.1-10.178,7.896-12.445l1.665-0.787l-0.2,1.831c-0.02,0.171-0.028,0.333-0.028,0.492c0,0.878,0.259,1.727,0.747,2.456
		l0.614,0.917l-0.957,0.55c-2.492,1.432-4.04,4.109-4.04,6.986v3.637c0,1.722,0.582,3.438,1.64,4.831l1.255,1.653h-8.592V30z
		 M51.03,58.424h-12.97v-6.605c0-1.57,1.277-2.849,2.849-2.849c1.57,0,2.849,1.278,2.849,2.849c0,0.435,0.354,0.788,0.787,0.788
		c0.435,0,0.788-0.354,0.788-0.788c0-1.57,1.278-2.849,2.849-2.849c1.571,0,2.849,1.278,2.849,2.849V58.424z M58.424,58.424h-5.817
		v-6.605c0-2.439-1.985-4.425-4.425-4.425c-1.089,0-2.136,0.401-2.949,1.13l-0.688,0.615l-0.687-0.615
		c-0.813-0.729-1.86-1.13-2.949-1.13c-2.439,0-4.424,1.985-4.424,4.425v6.605h-5.697V44.545c0-0.503-0.085-0.999-0.254-1.474
		l-0.487-1.374h10.862c0.435,0,0.788-0.354,0.788-0.788V39.9c0-0.279-0.15-0.54-0.392-0.681c-2.032-1.183-3.245-3.271-3.245-5.583
		v-5.701l1.648,1.234c1.393,1.044,3.11,1.619,4.836,1.619h6.485v2.849c0,2.313-1.213,4.4-3.245,5.583
		c-0.241,0.141-0.392,0.401-0.392,0.681v1.009c0,0.435,0.354,0.788,0.788,0.788h7.272c1.61,0,2.97,1.304,2.97,2.848V58.424z
		 M58.424,40.919l-1.388-0.514c-0.509-0.188-1.041-0.284-1.582-0.284H49.71l1.255-1.653c1.059-1.394,1.642-3.109,1.642-4.831v-3.248
		c0-3.035-1.56-5.857-4.071-7.366l-0.932-0.56l0.609-0.9c0.495-0.732,0.757-1.587,0.757-2.472c0-0.164-0.01-0.332-0.03-0.513
		l-0.209-1.822l1.665,0.77c4.877,2.256,8.028,7.152,8.028,12.474V40.919z"/>
</g>
</svg>
