<?xml version="1.0" encoding="utf-8"?>
<!-- Generator: Adobe Illustrator 16.0.0, SVG Export Plug-In . SVG Version: 6.00 Build 0)  -->
<!DOCTYPE svg PUBLIC "-//W3C//DTD SVG 1.1//EN" "http://www.w3.org/Graphics/SVG/1.1/DTD/svg11.dtd">
<svg version="1.1" id="Layer_1" xmlns="http://www.w3.org/2000/svg" xmlns:xlink="http://www.w3.org/1999/xlink" x="0px" y="0px"
	 width="60px" height="60px" viewBox="0 0 60 60" enable-background="new 0 0 60 60" xml:space="preserve">
<g>
	<path fill="#E97E26" d="M58.147,20.69C54.273,8.315,42.952,0,29.977,0c-2.974,0-5.933,0.454-8.794,1.35
		C5.753,6.18-2.912,22.591,1.753,38.032l1.36-0.426c-0.743-2.465-1.144-5.011-1.191-7.573L1.917,29.73h3.339
		c0.393,0,0.712-0.319,0.712-0.712v-3.743l2.819-2.819c0.231-0.231,0.275-0.59,0.107-0.871l-3.028-5.047
		c-0.066-0.109-0.163-0.2-0.279-0.262l-0.269-0.142l0.147-0.266c3.061-5.51,7.937-9.871,13.727-12.28l0.125-0.053l5.807,2.903
		c0.224,0.111,0.503,0.095,0.713-0.045l2.925-1.95l3.918-0.979c0.318-0.079,0.541-0.363,0.541-0.69V1.599l0.334,0.043
		c3.296,0.423,6.476,1.428,9.452,2.985c2.961,1.549,5.587,3.575,7.806,6.022l0.449,0.497H47.65c-0.189,0-0.369,0.073-0.503,0.208
		l-3.829,3.829h-5.762c-0.393,0-0.712,0.319-0.712,0.712v7.066c0,0.393,0.319,0.712,0.712,0.712h4.038
		c0.238,0,0.46-0.118,0.593-0.317l1.807-2.711h5.263l3.832,6.707c0.126,0.222,0.363,0.359,0.618,0.359h4.317l0.016,0.28
		c0.278,5.009-0.817,10.032-3.17,14.526c-3.476,6.645-9.331,11.538-16.488,13.778c-2.7,0.845-5.504,1.273-8.333,1.273h-0.001
		c-4.627,0-9.236-1.158-13.331-3.351c-4.077-2.183-7.568-5.356-10.114-9.19l-1.195,0.775c2.938,4.431,7.033,7.984,11.861,10.289
		l0.609,0.29l-0.625,0.253c-3.173,1.282-5.972,1.933-8.318,1.933c-2.255,0-4.002-0.603-5.192-1.791
		c-2.3-2.301-2.369-6.775-0.191-12.6c2.12-5.672,6.215-12.236,11.544-18.509l-1.083-0.927C8.208,31.571,3.903,38.601,1.875,44.563
		c-1.007,2.96-1.448,5.6-1.31,7.846c0.14,2.269,0.869,4.078,2.168,5.377C4.204,59.255,6.288,60,8.925,60
		c2.993,0,6.583-0.949,10.67-2.822l0.111-0.051l0.115,0.042c3.294,1.211,6.736,1.825,10.229,1.825c2.979,0,5.924-0.45,8.756-1.339
		c7.52-2.354,13.673-7.494,17.326-14.477C59.786,36.198,60.501,28.212,58.147,20.69z M7.388,21.842l-2.635,2.635
		c-0.133,0.133-0.209,0.315-0.209,0.504v3.325H1.942l0.017-0.313c0.193-3.506,1.034-6.913,2.5-10.126l0.234-0.514L7.388,21.842z
		 M31.799,2.219L28.3,3.094c-0.079,0.02-0.154,0.053-0.223,0.099l-2.684,1.789l-4.257-2.129l0.714-0.217
		c2.669-0.81,5.42-1.22,8.176-1.22c0.495,0,0.997,0.014,1.491,0.04l0.281,0.015V2.219z M54.12,26.287l-3.832-6.707
		c-0.127-0.222-0.363-0.359-0.618-0.359h-6.057c-0.238,0-0.46,0.119-0.593,0.317l-1.808,2.711H38.27v-5.641h5.344
		c0.19,0,0.369-0.074,0.504-0.209l3.828-3.828h4.461l0.089,0.119c1.893,2.536,3.337,5.371,4.294,8.427
		c0.493,1.577,0.851,3.204,1.062,4.835l0.044,0.335H54.12z"/>
	<path fill="#E97E26" d="M13.837,17.411l-2.019,2.019c-0.154,0.155-0.231,0.375-0.204,0.591s0.154,0.412,0.34,0.523l4.895,2.938
		l2.937,4.895c0.113,0.189,0.304,0.313,0.524,0.341c0.025,0.003,0.055,0.005,0.086,0.005c0.19,0,0.37-0.074,0.506-0.209l2.018-2.018
		c0.176-0.177,0.248-0.437,0.188-0.678l-0.911-3.643l2.006-1.986l3.494,8.103c0.09,0.209,0.276,0.363,0.499,0.413
		c0.225,0.05,0.458-0.012,0.626-0.16l2.141-1.888c0.206-0.183,0.289-0.472,0.21-0.738l-2.892-9.768l2.732-2.705
		c1.446-1.515,2.212-3.461,2.211-5.623c0-0.394-0.32-0.713-0.713-0.713c-2.143,0-4.157,0.834-5.671,2.349l-2.605,2.605l-9.689-2.906
		c-0.248-0.075-0.526-0.003-0.708,0.179l-2.019,2.019c-0.166,0.166-0.24,0.403-0.197,0.635c0.042,0.23,0.196,0.425,0.411,0.521
		l8.138,3.617l-2.009,2.009l-3.647-0.912C14.273,17.164,14.013,17.235,13.837,17.411z M29.678,25.888l-1.062,0.938l-3.325-7.714
		l1.84-1.822L29.678,25.888z M13.559,11.628l0.984-0.984l8.546,2.564l-1.839,1.839L13.559,11.628z M18.206,19.615
		c0.057,0.015,0.115,0.021,0.173,0.021c0.19,0,0.369-0.074,0.503-0.209l8.963-8.963c0.968-0.969,2.187-1.604,3.524-1.834
		l0.409-0.071l-0.065,0.411c-0.211,1.316-0.804,2.519-1.718,3.476l-9.09,9c-0.178,0.175-0.25,0.436-0.19,0.679l0.912,3.646
		l-1.088,1.088l-2.559-4.265c-0.061-0.101-0.145-0.185-0.243-0.244l-4.266-2.559l1.088-1.089L18.206,19.615z"/>
	<path fill="#E97E26" d="M38.863,49.206c0,0.393,0.319,0.713,0.712,0.713h5.047c0.19,0,0.369-0.075,0.505-0.21l4.037-4.038
		c0.135-0.134,0.209-0.313,0.209-0.503v-3.822l3.918-5.877c0.146-0.219,0.16-0.499,0.036-0.73s-0.365-0.376-0.629-0.376h-3.597
		L46.27,28.7c-0.122-0.243-0.366-0.395-0.638-0.395H35.538c-0.393,0-0.713,0.319-0.713,0.713v8.075c0,0.393,0.32,0.712,0.713,0.712
		h3.325V49.206z M36.249,36.381v-6.65h8.941l2.832,5.663c0.122,0.242,0.366,0.394,0.638,0.394h2.707l-3.3,4.948
		c-0.078,0.118-0.12,0.255-0.12,0.396v3.743l-3.62,3.62h-4.039l-0.001-0.297V37.094c0-0.393-0.32-0.713-0.713-0.713H36.249z"/>
	<path fill="#E97E26" d="M19.685,52.234c0,0.271,0.151,0.516,0.395,0.638c0.098,0.049,0.208,0.074,0.318,0.074
		c0.156,0,0.304-0.049,0.427-0.142l4.038-3.028c0.178-0.134,0.285-0.347,0.285-0.57V46.52l4.78-3.822
		c0.17-0.137,0.268-0.339,0.268-0.557v-5.047c0-0.393-0.32-0.713-0.713-0.713h-5.761l-2.819-2.819
		c-0.132-0.133-0.315-0.208-0.504-0.208h-5.047c-0.393,0-0.712,0.319-0.712,0.712v7.065c0,0.393,0.32,0.713,0.712,0.713h4.334
		V52.234z M16.063,40.419v-5.642h4.04l2.82,2.82c0.132,0.133,0.315,0.208,0.503,0.208h5.344v3.993l-4.78,3.823
		c-0.169,0.136-0.267,0.339-0.267,0.556v2.673L21.11,50.81v-9.679c0-0.393-0.319-0.712-0.712-0.712H16.063z"/>
</g>
</svg>
