<?xml version="1.0" encoding="utf-8"?>
<!-- Generator: Adobe Illustrator 16.0.0, SVG Export Plug-In . SVG Version: 6.00 Build 0)  -->
<!DOCTYPE svg PUBLIC "-//W3C//DTD SVG 1.1//EN" "http://www.w3.org/Graphics/SVG/1.1/DTD/svg11.dtd">
<svg version="1.1" id="Layer_1" xmlns="http://www.w3.org/2000/svg" xmlns:xlink="http://www.w3.org/1999/xlink" x="0px" y="0px"
	 width="496px" height="496px" viewBox="0 0 496 496" enable-background="new 0 0 496 496" xml:space="preserve">
<path fill="#EA7E26" d="M488,210h-2v-26c0-3.309-2.691-6-6-6h-10v-34c0-44.322-28.379-83.307-70.617-97.008L398,46.544V16
	c0-3.309-2.691-6-6-6h-48c-3.309,0-6,2.691-6,6v30.544l-1.383,0.448C294.379,60.693,266,99.678,266,144v34h-10c-3.309,0-6,2.691-6,6
	v26h-44v-41.457l1.497-0.389c3.362-0.874,6.44-2.231,9.148-4.034c8.361-5.582,13.354-14.913,13.354-24.96V96c0-3.309-2.691-6-6-6
	h-48c-3.309,0-6,2.691-6,6v43.16c0,10.055,4.993,19.386,13.355,24.961c2.683,1.791,5.761,3.147,9.15,4.034l1.494,0.391V210h-44
	v-74.496c0-11.234-3.055-22.261-8.836-31.889l-9.176-15.306C128.071,81.787,126,74.315,126,66.703V16c0-7.72-6.28-14-14-14H96
	c-7.72,0-14,6.28-14,14v50.703c0,7.612-2.071,15.084-5.989,21.608l-9.175,15.303C61.055,113.243,58,124.27,58,135.504V210H8
	c-3.309,0-6,2.691-6,6v162c0,1.607,0.623,3.113,1.754,4.238L18,396.484V450c0,7.72,6.28,14,14,14h24c7.72,0,14-6.28,14-14v-12.1
	l2.493,0.634c5.088,1.293,10.333,1.948,15.59,1.948c16.72,0,32.405-6.48,44.167-18.248c9.542-9.534,22.24-14.784,35.754-14.784
	c13.521,0,26.222,5.256,35.762,14.8c11.812,11.812,27.521,18.316,44.234,18.316c16.713,0,32.428-6.511,44.25-18.332
	c9.536-9.537,22.233-14.789,35.75-14.789s26.214,5.252,35.75,14.789c11.774,11.774,27.453,18.25,44.163,18.25
	c5.258,0,10.505-0.656,15.594-1.95L426,437.9V450c0,7.72,6.28,14,14,14h24c7.72,0,14-6.28,14-14v-53.516l14.242-14.242
	c1.135-1.129,1.758-2.635,1.758-4.242V216C494,212.691,491.309,210,488,210z M94,14h20v20H94V14z M58,452H30v-43.516l13.766,13.766
	c3.811,3.811,8.261,7.182,13.227,10.021L58,432.848V452z M82,428.221l-2.326-0.384c-10.457-1.729-19.939-6.595-27.423-14.07
	L14,375.516V222h68V428.221z M70,210v-74.496c0-9.047,2.46-17.939,7.116-25.715l9.176-15.306C91.335,86.1,94,76.495,94,66.703V46h20
	v20.703c0,9.785,2.663,19.394,7.699,27.787l9.176,15.306c4.661,7.762,7.125,16.652,7.125,25.708V210H70z M162,395.782L160.247,396
	c-13.991,1.738-26.612,7.881-36.497,17.766c-7.484,7.484-16.968,12.351-27.425,14.071L94,428.22V222h68V395.782z M190.013,154.137
	c-5.018-3.351-8.013-8.95-8.013-14.977V102h36v37.16c0,6.03-2.998,11.629-8.02,14.977c-2.975,1.981-6.427,3.028-9.984,3.028
	S192.987,156.118,190.013,154.137z M242,428.221l-2.326-0.384c-10.47-1.73-19.958-6.602-27.44-14.087
	c-9.882-9.882-22.497-16.02-36.479-17.75L174,395.783V222h68V428.221z M350,22h36v21.692l-2.306-0.356
	C377.799,42.424,372.812,42,368,42s-9.799,0.424-15.694,1.336L350,43.692V22z M278,144c0-49.626,40.374-90,90-90s90,40.374,90,90v34
	H278V144z M322,395.782L320.246,396c-13.991,1.738-26.611,7.881-36.496,17.766c-7.484,7.484-16.968,12.351-27.425,14.071L254,428.22
	V222h68V395.782z M402,428.221l-2.326-0.384c-10.457-1.729-19.939-6.595-27.423-14.07c-9.899-9.898-22.514-16.036-36.496-17.767
	L334,395.783V222h68V428.221z M262,210v-20h212v20H262z M466,452h-28v-19.152l1.007-0.576c4.967-2.84,9.417-6.211,13.228-10.021
	L466,408.484V452z M482,375.516l-38.25,38.25c-7.484,7.484-16.968,12.351-27.425,14.071L414,428.22V222h68V375.516z"/>
<path fill="#EA7E26" d="M378,82.043v12.015c17.158,1,30.941,14.784,31.941,31.942h12.016C420.935,102.224,401.776,83.065,378,82.043
	z"/>
</svg>
