<?xml version="1.0" encoding="utf-8"?>
<!-- Generator: Adobe Illustrator 16.0.0, SVG Export Plug-In . SVG Version: 6.00 Build 0)  -->
<!DOCTYPE svg PUBLIC "-//W3C//DTD SVG 1.1//EN" "http://www.w3.org/Graphics/SVG/1.1/DTD/svg11.dtd">
<svg version="1.1" id="Layer_1" xmlns="http://www.w3.org/2000/svg" xmlns:xlink="http://www.w3.org/1999/xlink" x="0px" y="0px"
	 width="60px" height="60px" viewBox="0 0 60 60" enable-background="new 0 0 60 60" xml:space="preserve">
<g>
	<path fill="#E97E26" d="M40.4,33.241l-0.228-0.295l0.338-0.156c2.285-1.059,4.574-1.835,6.804-2.307
		c0.479-0.101,0.785-0.572,0.684-1.051c-0.086-0.407-0.45-0.703-0.865-0.703c-0.063,0-0.124,0.007-0.186,0.02
		c-2.532,0.536-5.126,1.438-7.711,2.684l-0.208,0.1l-0.148-0.177c-1.474-1.757-3.124-3.551-4.904-5.331
		c-1.898-1.898-3.802-3.64-5.655-5.174l-0.224-0.186l0.18-0.228c1.57-1.986,2.856-4.22,3.82-6.64
		c1.515-3.8,2.282-8.144,2.282-12.912C34.379,0.397,33.981,0,33.492,0c-0.488,0-0.886,0.397-0.886,0.886
		c0,7.461-1.923,13.667-5.713,18.448l-0.181,0.229l-0.232-0.177c-0.716-0.546-1.4-1.04-2.035-1.468
		c-2.299-1.551-3.974-2.305-5.119-2.305c-0.523,0-0.939,0.156-1.273,0.479l-0.032,0.029c-0.253,0.257-0.406,0.56-0.465,0.928
		l-0.006,0.034l-0.014,0.033L0.07,58.771c-0.14,0.333-0.065,0.714,0.19,0.97C0.428,59.907,0.65,60,0.887,60
		c0.118,0,0.234-0.023,0.343-0.069l41.687-17.481l0.035-0.006c0.336-0.055,0.618-0.188,0.862-0.408l0.009-0.007
		c0.016-0.014,0.03-0.028,0.046-0.042c0.003-0.003,0.01-0.01,0.018-0.016l0.019-0.021c1.001-1.039,0.42-3.069-1.823-6.396
		C41.594,34.831,41.028,34.053,40.4,33.241z M9.384,51.912c-0.251,1.563-0.799,2.602-1.103,3.081l-0.05,0.079l-5.688,2.386
		l5.571-13.285l0.269,0.674C9.393,47.379,9.729,49.756,9.384,51.912z M16.666,47.912c-0.492,2.802-1.805,4.173-2.196,4.525
		l-0.038,0.034l-3.732,1.565l0.167-0.592c0.657-2.34,0.881-6.201-1.781-11.312L9.02,42.011l3.844-9.166l0.293,0.557
		C16.912,40.521,17.138,45.222,16.666,47.912z M20.785,49.808l-3.277,1.374l0.26-0.656c0.256-0.646,0.457-1.338,0.597-2.054
		c0.933-4.76-0.602-10.671-4.56-17.569l-0.073-0.127l1.527-3.641l0.313,0.377c0.942,1.134,2.166,2.908,2.68,4.106
		c0.14,0.326,0.46,0.536,0.815,0.536c0.12,0,0.237-0.024,0.35-0.072c0.449-0.192,0.657-0.715,0.464-1.164
		c-0.658-1.531-2.371-4.014-3.74-5.42l-0.137-0.141l2.271-5.417l0.296,0.542c0.334,0.614,0.759,1.303,1.262,2.048
		c0.342,0.508,0.726,1.046,1.139,1.602l0.01,0.014c4.104,6.228,4.01,12.598,3.209,16.845c-0.87,4.613-2.719,7.881-3.358,8.751
		L20.785,49.808z M29.91,45.965l-0.037,0.031l-6.363,2.669l0.315-0.691c0.665-1.457,1.57-3.795,2.109-6.655
		c0.697-3.697,0.623-7.316-0.222-10.754l-0.268-1.091l0.772,0.815c0.567,0.6,1.147,1.195,1.724,1.771
		c1.752,1.752,3.519,3.379,5.25,4.835l0.109,0.093l-0.004,0.144C33.121,42.863,30.444,45.495,29.91,45.965z M33.184,44.608
		l0.342-0.707c0.722-1.494,1.198-3.182,1.415-5.016l0.062-0.517l0.414,0.315c0.722,0.552,1.413,1.05,2.054,1.482
		c0.744,0.502,1.434,0.927,2.048,1.262l0.543,0.296L33.184,44.608z M42.659,40.744l-0.461-0.105
		c-0.681-0.154-1.999-0.698-4.414-2.41c-2.587-1.832-5.638-4.468-8.591-7.422c-2.954-2.953-5.589-6.005-7.421-8.59
		c-1.712-2.417-2.256-3.734-2.41-4.415l-0.104-0.46l0.46,0.104c0.681,0.155,1.999,0.698,4.415,2.41
		c0.355,0.252,0.74,0.534,1.142,0.84l0.268,0.202l-0.307,0.316c-0.059,0.062-0.119,0.123-0.179,0.184
		c-0.345,0.346-0.345,0.908,0,1.254c0.167,0.168,0.39,0.26,0.627,0.26s0.459-0.092,0.627-0.26c0.14-0.141,0.282-0.286,0.435-0.446
		l0.191-0.2l0.213,0.177c1.806,1.492,3.733,3.255,5.575,5.096c1.595,1.595,3.093,3.213,4.454,4.811l0.235,0.276l-0.317,0.176
		c-0.212,0.118-0.424,0.238-0.637,0.36c-0.205,0.118-0.352,0.31-0.413,0.538c-0.061,0.229-0.029,0.468,0.089,0.673
		c0.158,0.273,0.453,0.443,0.769,0.443c0.154,0,0.308-0.041,0.442-0.119c0.303-0.175,0.627-0.355,0.993-0.554l0.22-0.119
		l0.155,0.197c0.524,0.666,1.007,1.309,1.431,1.908c1.712,2.415,2.256,3.733,2.41,4.414L42.659,40.744z"/>
	<path fill="#E97E26" d="M20.84,33.972c-0.143-0.317-0.46-0.523-0.809-0.523c-0.125,0-0.248,0.026-0.363,0.079
		c-0.431,0.193-0.634,0.69-0.462,1.13c0.131,0.343,0.464,0.572,0.829,0.572c0.099,0,0.198-0.018,0.293-0.051
		c0.224-0.078,0.403-0.238,0.506-0.452c0.103-0.213,0.116-0.453,0.038-0.677C20.862,34.024,20.851,33.995,20.84,33.972z"/>
	<path fill="#E97E26" d="M44.108,17.8c0.168,0.168,0.391,0.26,0.627,0.26s0.459-0.092,0.627-0.26
		c2.701-2.701,7.062-3.938,10.242-4.194c0.487-0.039,0.852-0.468,0.813-0.955c-0.037-0.457-0.426-0.814-0.886-0.814
		c-0.023,0-0.047,0.001-0.07,0.003c-3.494,0.281-8.312,1.666-11.353,4.708c-0.167,0.167-0.26,0.39-0.26,0.626
		C43.849,17.41,43.941,17.633,44.108,17.8z"/>
	<path fill="#E97E26" d="M59.344,12.057c-0.032-0.009-0.064-0.017-0.098-0.025c-0.07-0.018-0.143-0.026-0.215-0.026
		c-0.407,0-0.761,0.276-0.859,0.673c-0.117,0.475,0.172,0.956,0.646,1.074l0.063,0.017c0.487,0.13,0.965-0.164,1.089-0.626
		C60.097,12.671,59.815,12.184,59.344,12.057z"/>
	<path fill="#E97E26" d="M8.403,9.302h1.48v1.48c0,0.489,0.397,0.887,0.886,0.887s0.887-0.397,0.887-0.887v-1.48h1.48
		c0.489,0,0.886-0.397,0.886-0.886c0-0.489-0.397-0.887-0.886-0.887h-1.48v-1.48c0-0.489-0.398-0.887-0.887-0.887
		S9.883,5.56,9.883,6.049v1.48h-1.48c-0.489,0-0.887,0.397-0.887,0.887C7.516,8.904,7.914,9.302,8.403,9.302z"/>
	<path fill="#E97E26" d="M36.096,20.781h1.48v1.48c0,0.489,0.397,0.887,0.887,0.887c0.488,0,0.887-0.397,0.887-0.887v-1.48h1.479
		c0.489,0,0.887-0.397,0.887-0.886c0-0.489-0.397-0.887-0.887-0.887H39.35v-1.48c0-0.489-0.398-0.887-0.887-0.887
		c-0.489,0-0.887,0.397-0.887,0.887v1.48h-1.48c-0.489,0-0.887,0.397-0.887,0.887C35.209,20.384,35.606,20.781,36.096,20.781z"/>
	<path fill="#E97E26" d="M52.546,49.424h-1.48v-1.48c0-0.489-0.397-0.887-0.887-0.887c-0.488,0-0.886,0.397-0.886,0.887v1.48h-1.481
		c-0.488,0-0.886,0.397-0.886,0.887c0,0.488,0.397,0.886,0.886,0.886h1.481v1.48c0,0.489,0.397,0.887,0.886,0.887
		c0.489,0,0.887-0.397,0.887-0.887v-1.48h1.48c0.488,0,0.887-0.397,0.887-0.886C53.433,49.821,53.034,49.424,52.546,49.424z"/>
	<path fill="#E97E26" d="M45.855,6.507c1.794,0,3.253-1.46,3.253-3.254S47.649,0,45.855,0s-3.253,1.459-3.253,3.253
		S44.062,6.507,45.855,6.507z M45.855,1.772c0.816,0,1.48,0.664,1.48,1.48s-0.664,1.48-1.48,1.48s-1.48-0.664-1.48-1.48
		S45.039,1.772,45.855,1.772z"/>
	<path fill="#E97E26" d="M53.256,20.547c-1.794,0-3.253,1.46-3.253,3.254s1.459,3.253,3.253,3.253s3.254-1.459,3.254-3.253
		S55.05,20.547,53.256,20.547z M53.256,25.281c-0.816,0-1.48-0.664-1.48-1.48s0.664-1.48,1.48-1.48s1.48,0.664,1.48,1.48
		S54.072,25.281,53.256,25.281z"/>
	<path fill="#E97E26" d="M23.196,10.723c1.794,0,3.253-1.46,3.253-3.254s-1.459-3.253-3.253-3.253s-3.253,1.459-3.253,3.253
		S21.402,10.723,23.196,10.723z M23.196,5.988c0.816,0,1.48,0.664,1.48,1.48s-0.664,1.48-1.48,1.48s-1.48-0.664-1.48-1.48
		S22.379,5.988,23.196,5.988z"/>
	<circle fill="#E97E26" cx="51.681" cy="34.504" r="0.887"/>
	<circle fill="#E97E26" cx="39.372" cy="9.77" r="0.887"/>
	<circle fill="#E97E26" cx="55.23" cy="43.38" r="0.887"/>
	<circle fill="#E97E26" cx="16.177" cy="2.07" r="0.886"/>
</g>
</svg>
