<?xml version="1.0" encoding="utf-8"?>
<!-- Generator: Adobe Illustrator 16.0.0, SVG Export Plug-In . SVG Version: 6.00 Build 0)  -->
<!DOCTYPE svg PUBLIC "-//W3C//DTD SVG 1.1//EN" "http://www.w3.org/Graphics/SVG/1.1/DTD/svg11.dtd">
<svg version="1.1" id="Layer_1" xmlns="http://www.w3.org/2000/svg" xmlns:xlink="http://www.w3.org/1999/xlink" x="0px" y="0px"
	 width="60px" height="60px" viewBox="0 0 60 60" enable-background="new 0 0 60 60" xml:space="preserve">
<g>
	<path fill="#E97E26" d="M52.199,34.523c-0.598-0.448-1.344-0.695-2.1-0.695s-1.501,0.247-2.098,0.695l-6.229,4.669h-0.16
		l-0.04-0.084c-0.561-1.17-1.75-1.926-3.031-1.926H32.27l-2.291-1.528c-0.473-0.315-1.023-0.481-1.591-0.481h-6.688
		c-0.685,0-1.347,0.245-1.865,0.689l-5.868,5.029l-1.448-1.448c-0.162-0.162-0.377-0.251-0.606-0.251
		c-0.229,0-0.444,0.089-0.606,0.251l-6.029,6.029c-0.162,0.162-0.251,0.378-0.251,0.606s0.089,0.443,0.251,0.605L18.34,59.749
		C18.502,59.911,18.717,60,18.946,60c0.229,0,0.444-0.089,0.606-0.251l6.03-6.029c0.162-0.162,0.251-0.378,0.251-0.606
		s-0.089-0.443-0.251-0.605l-1.404-1.404l0.814-0.814c0.218-0.218,0.507-0.337,0.816-0.337l14.58,0.019
		c1.292,0,2.55-0.521,3.458-1.431l8.729-8.746c0.717-0.717,1.086-1.709,1.015-2.721C53.518,36.063,53.011,35.134,52.199,34.523z
		 M18.946,57.931L7.094,46.079l4.817-4.817l11.852,11.852L18.946,57.931z M51.36,38.582l-8.729,8.746
		c-0.588,0.589-1.404,0.928-2.238,0.928l-14.458-0.02l-0.126,0.001c-0.767,0-1.487,0.299-2.028,0.84l-0.814,0.814l-7.784-7.784
		l5.767-4.944c0.211-0.179,0.478-0.276,0.751-0.276h6.687c0.229,0,0.45,0.067,0.64,0.193l2.508,1.673
		c0.142,0.094,0.307,0.144,0.476,0.144h6.532c0.911,0,1.654,0.741,1.655,1.653c0,0.019-0.002,0.036-0.005,0.055
		c0,0.005-0.001,0.01-0.002,0.015c-0.003,0.082-0.008,0.173-0.026,0.263c-0.15,0.755-0.903,1.325-1.752,1.325h-9.269v1.714h9.399
		c0.957,0,1.877-0.423,2.523-1.161l0.018-0.021c0.13-0.15,0.229-0.282,0.312-0.414c0.027-0.043,0.051-0.089,0.075-0.138
		c0.014-0.025,0.026-0.051,0.04-0.076l0.039-0.071c0.042-0.078,0.082-0.151,0.113-0.229c0.06-0.147,0.103-0.304,0.139-0.45
		c0.007-0.024,0.015-0.049,0.022-0.073c0.008-0.022,0.016-0.046,0.021-0.07l0.006-0.021c0.01-0.052,0.019-0.107,0.027-0.164
		l0.02-0.126h0.163c0.187,0,0.364-0.06,0.514-0.171l6.456-4.841c0.304-0.229,0.684-0.355,1.069-0.355s0.766,0.126,1.071,0.355
		c0.413,0.31,0.672,0.783,0.709,1.3C51.915,37.711,51.727,38.217,51.36,38.582z"/>
	<polygon fill="#E97E26" points="2.01,5.734 3.724,5.734 3.724,3.724 5.734,3.724 5.734,2.01 3.724,2.01 3.724,0 2.01,0 2.01,2.01 
		0,2.01 0,3.724 2.01,3.724 	"/>
	<polygon fill="#E97E26" points="10.049,7.744 11.764,7.744 11.764,5.734 13.773,5.734 13.773,4.02 11.764,4.02 11.764,2.01 
		10.049,2.01 10.049,4.02 8.04,4.02 8.04,5.734 10.049,5.734 	"/>
	<path fill="#E97E26" d="M42.207,16.08v1.714c3.844,0.078,6.955,3.19,7.033,7.033h1.714C50.876,20.039,46.995,16.159,42.207,16.08z"
		/>
	<path fill="#E97E26" d="M59.645,27.317l-0.047-0.036l-0.011-0.058C57.568,15.554,47.767,7.505,34.006,6.218l-0.134-0.013V2.867
		C33.872,1.286,32.586,0,31.005,0h-2.01c-1.581,0-2.867,1.286-2.867,2.867v3.338l-0.134,0.013
		C12.233,7.505,2.432,15.554,0.413,27.224l-0.01,0.058l-0.047,0.036C0.129,27.485,0,27.731,0,27.99v4.02
		c0,0.473,0.385,0.857,0.857,0.857h58.285c0.473,0,0.857-0.385,0.857-0.857v-4.02C60,27.731,59.87,27.485,59.645,27.317z
		 M27.842,2.867c0-0.636,0.517-1.153,1.153-1.153h2.01c0.636,0,1.152,0.517,1.152,1.153v3.216l-0.153-0.006
		c-0.021-0.001-0.044-0.001-0.065-0.001c-0.025,0-0.05,0-0.074-0.001C31.153,6.043,30.562,6.03,30,6.03
		c-0.561,0-1.153,0.014-1.864,0.044c-0.025,0.001-0.05,0.001-0.075,0.001c-0.021,0-0.043,0-0.065,0.001l-0.154,0.006V2.867z
		 M2.198,26.957c1.062-5.36,3.941-9.964,8.325-13.316c4.368-3.339,10.108-5.343,16.6-5.793c1.892-0.133,3.862-0.133,5.754,0
		c6.491,0.45,12.231,2.454,16.599,5.793c4.385,3.352,7.264,7.956,8.325,13.316l0.035,0.176H2.164L2.198,26.957z M58.286,31.152
		H1.714v-2.305h56.572V31.152z"/>
</g>
</svg>
