<?xml version="1.0" encoding="utf-8"?>
<!-- Generator: Adobe Illustrator 16.0.0, SVG Export Plug-In . SVG Version: 6.00 Build 0)  -->
<!DOCTYPE svg PUBLIC "-//W3C//DTD SVG 1.1//EN" "http://www.w3.org/Graphics/SVG/1.1/DTD/svg11.dtd">
<svg version="1.1" id="Layer_1" xmlns="http://www.w3.org/2000/svg" xmlns:xlink="http://www.w3.org/1999/xlink" x="0px" y="0px"
	 width="50px" height="60px" viewBox="0 0 50 60" enable-background="new 0 0 50 60" xml:space="preserve">
<g>
	<path fill="#E97E26" d="M2.097,30.168c-0.293-0.293-0.293-0.771,0-1.063c0.419-0.419,0.65-0.978,0.65-1.572
		s-0.231-1.153-0.65-1.572c-0.139-0.139-0.323-0.215-0.52-0.215c-0.196,0-0.381,0.077-0.52,0.215
		c-0.139,0.139-0.215,0.324-0.215,0.521c0,0.196,0.077,0.381,0.215,0.52c0.142,0.142,0.22,0.331,0.22,0.532s-0.078,0.39-0.22,0.532
		c-0.867,0.867-0.867,2.277,0,3.144c0.139,0.139,0.324,0.216,0.521,0.216c0.196,0,0.381-0.077,0.52-0.216
		C2.384,30.922,2.384,30.455,2.097,30.168z"/>
	<path fill="#E97E26" d="M43.533,21.667l-0.031-0.073l0.044-0.066c2.031-3.069,2.584-6.867,1.517-10.419
		c-0.34-1.132-1.318-1.953-2.492-2.092c-0.492-0.058-0.992-0.087-1.485-0.087c-3.031,0-5.944,1.103-8.202,3.106l-0.118,0.104
		l-4.593-5.917l0.057-0.088c0.419-0.645,0.641-1.392,0.641-2.16C28.869,1.783,27.086,0,24.895,0c-2.192,0-3.975,1.783-3.975,3.975
		c0,0.886,0.287,1.726,0.831,2.428l0.07,0.091l-4.383,5.647l-0.118-0.104c-2.258-2.003-5.171-3.106-8.203-3.106
		c-0.493,0-0.993,0.03-1.485,0.087C6.458,9.155,5.48,9.976,5.14,11.108c-1.067,3.552-0.514,7.35,1.517,10.42L6.7,21.594
		l-0.031,0.073c-0.734,1.738-1.106,3.563-1.106,5.426c0,4.537,2.253,8.133,6.515,10.4l0.811,0.431l-0.905-0.154
		c-1.155-0.198-2.842-0.627-4.323-1.546c-0.704-0.438-1.557-0.578-2.364-0.39c-0.814,0.19-1.505,0.687-1.946,1.396
		c-0.441,0.711-0.579,1.55-0.389,2.364c0.19,0.813,0.686,1.505,1.396,1.946c2.497,1.551,5.798,2.522,9.056,2.665l0.114,0.006
		l0.024,0.111c0.216,1.004,0.583,1.975,1.091,2.887l0.073,0.131l-0.132,0.071c-0.987,0.528-2.073,0.809-3.14,0.809
		c-0.444,0-0.884-0.049-1.309-0.145c-1.82-0.409-3.083-1.632-3.216-3.113c-0.054-0.594-0.335-1.132-0.794-1.514
		c-0.407-0.339-0.899-0.519-1.425-0.519c-0.068,0-0.137,0.003-0.205,0.01c-1.226,0.11-2.133,1.197-2.022,2.423
		c0.311,3.451,2.935,6.226,6.683,7.068c0.736,0.165,1.5,0.249,2.272,0.249c1.521,0,3.069-0.33,4.478-0.955
		c0.092-0.041,0.184-0.083,0.275-0.127l0.256-0.122l-0.047,0.28c-0.344,2.051-0.151,4.064,0.589,6.156
		C17.421,59.161,18.607,60,19.931,60c0.355,0,0.707-0.061,1.043-0.18c1.627-0.575,2.483-2.367,1.908-3.994
		c-0.346-0.978-0.464-1.887-0.362-2.779l0.018-0.159l0.157,0.03c1.477,0.287,3.031,0.306,4.516,0.055l0.16-0.027l0.013,0.162
		c0.08,1.08,0.018,2.191-0.177,3.129c-0.349,1.689,0.742,3.349,2.433,3.698C29.848,59.978,30.062,60,30.274,60
		c1.476,0,2.764-1.05,3.063-2.497c0.481-2.332,0.458-5.006-0.066-7.335l-0.019-0.084l0.063-0.058
		c1.343-1.222,2.366-2.738,2.958-4.387l0.069-0.193l0.161,0.128c0.611,0.481,1.141,1.042,1.573,1.666
		c0.137,0.198,0.363,0.316,0.604,0.316c0.15,0,0.295-0.046,0.419-0.132c0.333-0.23,0.416-0.689,0.186-1.023
		c-0.659-0.949-1.492-1.765-2.479-2.424l-0.079-0.054l0.016-0.094c0.091-0.552,0.137-1.117,0.137-1.679
		c0-0.587-0.049-1.175-0.146-1.747l-0.048-0.279l0.256,0.121c2.584,1.221,4.558,3.097,5.866,5.577
		c0.428,0.809,0.117,1.814-0.692,2.241c-0.211,0.111-0.437,0.175-0.672,0.189c-0.196,0.012-0.376,0.1-0.506,0.247
		c-0.131,0.146-0.195,0.336-0.184,0.532c0.024,0.402,0.368,0.715,0.778,0.688c0.446-0.027,0.873-0.147,1.271-0.356
		c1.525-0.806,2.111-2.703,1.306-4.229c-2.037-3.857-5.215-5.742-7.522-6.645l-0.342-0.133l0.339-0.141
		c0.784-0.325,1.52-0.691,2.188-1.087c3.839-2.274,5.868-5.745,5.868-10.038C44.64,25.23,44.267,23.404,43.533,21.667z
		 M43.935,12.706l0.026,0.155c0.285,1.702,0.325,4.291-1.105,6.96l-0.124,0.23l-0.134-0.224c-0.405-0.679-0.871-1.338-1.384-1.96
		c-0.74-0.898-1.598-1.743-2.548-2.508l-0.146-0.117l0.147-0.115c1.457-1.137,3.178-1.939,5.114-2.386L43.935,12.706z
		 M34.539,12.577c2.374-1.794,4.9-2.17,6.603-2.17c0.431,0,0.854,0.024,1.257,0.071c0.42,0.049,0.801,0.276,1.045,0.623l0.126,0.178
		l-0.213,0.051c-2.286,0.542-4.298,1.535-5.979,2.951l-0.084,0.071l-0.092-0.061c-0.828-0.545-1.715-1.037-2.635-1.461l-0.224-0.104
		L34.539,12.577z M29.764,10.673l3,3.866l-0.108,0.091c-2.542,2.134-6.13,2.364-7.554,2.364c-1.245,0-3.662-0.165-5.873-1.272
		l-0.42-0.21l0.465-0.068c2.705-0.396,6.7-1.527,10.374-4.67L29.764,10.673z M24.895,1.471c1.381,0,2.504,1.124,2.504,2.504
		s-1.123,2.504-2.504,2.504s-2.504-1.124-2.504-2.504S23.514,1.471,24.895,1.471z M22.948,7.44l0.11,0.057
		c0.572,0.3,1.19,0.452,1.837,0.452c0.749,0,1.479-0.211,2.113-0.61l0.113-0.071L28.86,9.51l-0.105,0.091
		c-3.751,3.238-7.871,4.238-10.666,4.506l-0.34,0.033L22.948,7.44z M6.759,11.101c0.244-0.347,0.625-0.574,1.045-0.623
		c0.403-0.047,0.826-0.071,1.257-0.071c1.702,0,4.228,0.376,6.602,2.17l0.197,0.149l-0.224,0.104
		c-0.92,0.424-1.807,0.917-2.635,1.461l-0.092,0.061l-0.084-0.071c-1.681-1.416-3.692-2.408-5.979-2.951l-0.212-0.051L6.759,11.101z
		 M6.242,12.86l0.026-0.155l0.153,0.035c1.937,0.447,3.657,1.25,5.114,2.386l0.147,0.115l-0.146,0.117
		c-0.95,0.765-1.807,1.609-2.548,2.508c-0.513,0.623-0.978,1.282-1.384,1.96l-0.134,0.224l-0.123-0.23
		C5.916,17.151,5.956,14.562,6.242,12.86z M13.638,39.604c-0.21,0.828-0.317,1.685-0.317,2.547c0,0.125,0.003,0.261,0.009,0.415
		l0.007,0.164l-0.163-0.01c-2.909-0.177-5.839-1.063-8.04-2.429c-0.376-0.234-0.639-0.601-0.74-1.032
		c-0.101-0.432-0.027-0.876,0.207-1.253c0.233-0.376,0.6-0.639,1.031-0.74c0.427-0.1,0.88-0.025,1.253,0.207
		c2.528,1.569,5.471,1.885,6.619,1.947l0.179,0.01L13.638,39.604z M16.397,49.813c-0.359,0.217-0.726,0.407-1.087,0.568
		c-1.222,0.542-2.564,0.828-3.881,0.828c-0.664,0-1.319-0.071-1.949-0.214c-3.113-0.7-5.288-2.963-5.541-5.765
		c-0.019-0.202,0.043-0.399,0.174-0.556s0.313-0.253,0.516-0.271c0.2-0.019,0.4,0.045,0.555,0.174
		c0.156,0.13,0.252,0.313,0.271,0.516c0.192,2.131,1.903,3.864,4.358,4.417c0.53,0.119,1.079,0.18,1.632,0.18
		c1.366,0,2.744-0.367,3.982-1.063l0.11-0.062l0.078,0.1c0.251,0.318,0.524,0.627,0.81,0.917l0.131,0.134L16.397,49.813z
		 M21.427,57.584c-0.191,0.4-0.526,0.702-0.943,0.85c-0.179,0.063-0.365,0.096-0.553,0.096c-0.702,0-1.33-0.444-1.564-1.106
		c-0.75-2.12-0.865-4.164-0.353-6.249l0.051-0.205l0.175,0.117c0.851,0.571,1.777,1.033,2.755,1.374l0.116,0.04l-0.018,0.121
		c-0.182,1.206-0.051,2.415,0.402,3.695C21.643,56.733,21.619,57.184,21.427,57.584z M31.896,57.205
		c-0.158,0.768-0.841,1.324-1.622,1.324c-0.113,0-0.227-0.012-0.339-0.035c-0.896-0.185-1.474-1.064-1.289-1.96
		c0.244-1.181,0.306-2.503,0.178-3.825l-0.012-0.119l0.113-0.036c1.007-0.323,1.964-0.774,2.845-1.342l0.189-0.122l0.036,0.222
		C32.316,53.253,32.28,55.346,31.896,57.205z M38.021,35.865c-0.907,0.538-1.939,1.01-3.068,1.402l-0.023,0.008
		c-0.135,0.047-0.268,0.091-0.401,0.135l-0.695,0.225l0.553-0.478c1.023-0.883,1.566-1.748,1.842-2.318
		c0.37-0.767,0.169-1.684-0.488-2.23l-8.462-7.025l0.116-0.114c0.066-0.065,0.122-0.124,0.172-0.181
		c0.129-0.148,0.192-0.337,0.179-0.533c-0.013-0.196-0.102-0.375-0.25-0.504c-0.134-0.117-0.306-0.181-0.482-0.181
		c-0.213,0-0.416,0.092-0.556,0.252c-0.342,0.393-0.836,0.618-1.355,0.618c-0.519,0-1.013-0.225-1.355-0.618
		c-0.14-0.161-0.342-0.252-0.555-0.252c-0.178,0-0.349,0.064-0.483,0.181c-0.148,0.129-0.237,0.308-0.25,0.504
		c-0.014,0.196,0.05,0.385,0.179,0.534c0.412,0.473,0.95,0.816,1.554,0.992l0.089,0.026l2.011,11.758
		c0.024,0.147,0.068,0.293,0.129,0.433l0.088,0.2l-0.219,0.007c-0.414,0.012-0.801,0.018-1.188,0.018
		c-1.195,0-2.367-0.052-3.484-0.153c-0.409-0.037-0.763,0.263-0.799,0.666c-0.018,0.195,0.042,0.386,0.167,0.537
		s0.303,0.244,0.499,0.262c1.16,0.105,2.377,0.159,3.618,0.159c3.567,0,6.78-0.431,9.55-1.28l0.132-0.041L34.832,39
		c0.384,1.008,0.578,2.068,0.578,3.151c0,5.253-4.624,9.527-10.309,9.527c-5.684,0-10.309-4.274-10.309-9.527
		c0-1.083,0.194-2.144,0.578-3.152l0.049-0.129l0.132,0.04c0.579,0.178,1.166,0.335,1.743,0.468c0.054,0.012,0.11,0.019,0.166,0.019
		c0.344,0,0.639-0.234,0.716-0.571c0.044-0.191,0.01-0.389-0.094-0.555c-0.104-0.167-0.267-0.282-0.458-0.326
		c-0.804-0.185-1.574-0.401-2.289-0.644l-0.014-0.005c-0.044-0.021-0.09-0.036-0.134-0.047l-0.014-0.004
		c-6.727-2.34-8.139-6.813-8.139-10.152c0-1.792,0.388-3.548,1.153-5.222c0.022-0.042,0.036-0.074,0.047-0.104l0.006-0.013
		c1.044-2.228,2.754-4.237,4.944-5.812l0.016-0.01c0.049-0.026,0.095-0.059,0.138-0.097l0.014-0.011
		c0.761-0.533,1.573-1.015,2.413-1.43l0.214-0.106l-0.001,0.239c-0.001,0.258,0.066,0.515,0.194,0.741
		c0.007,0.013,0.013,0.023,0.019,0.034c0.083,0.139,0.186,0.261,0.304,0.364c1.208,1.046,3.933,2.8,8.606,2.8
		c4.675,0,7.399-1.754,8.607-2.8c0.33-0.286,0.519-0.701,0.517-1.139l-0.001-0.239l0.215,0.106c0.841,0.416,1.652,0.897,2.413,1.43
		l0.013,0.01c0.043,0.039,0.09,0.071,0.139,0.098l0.016,0.01c2.19,1.575,3.9,3.584,4.944,5.811l0.006,0.013
		c0.011,0.031,0.025,0.063,0.044,0.097c0.769,1.682,1.156,3.438,1.156,5.23C43.169,30.891,41.437,33.843,38.021,35.865z
		 M26.945,33.048c0.524-1.398,1.211-2.668,2.099-3.882l0.093-0.127l4.144,3.439l-0.108,0.115c-0.768,0.815-1.63,1.502-2.563,2.04
		c-0.934,0.539-1.959,0.942-3.049,1.199l-0.152,0.036l-0.477-2.784L26.945,33.048z M26.689,30.111l-0.204,0.365l-0.725-4.24
		l2.244,1.862l-0.083,0.112C27.467,28.824,27.052,29.464,26.689,30.111z M27.792,37.29c1.249-0.283,2.478-0.762,3.553-1.383
		c1.075-0.62,2.104-1.445,2.974-2.385l0.095-0.103l0.386,0.32c0.137,0.113,0.18,0.303,0.104,0.459
		c-0.356,0.739-1.149,1.833-2.901,2.845c-1.579,0.912-2.82,1.104-3.583,1.104c-0.112,0-0.224-0.004-0.331-0.013
		c-0.175-0.013-0.316-0.144-0.347-0.319l-0.084-0.494L27.792,37.29z"/>
	<path fill="#E97E26" d="M39.307,26.426c-0.695-0.174-2.114-0.31-3.232-0.31c-0.411,0-0.754,0.018-1.019,0.053
		c-0.402,0.053-0.687,0.423-0.633,0.825c0.048,0.365,0.361,0.639,0.728,0.639c0.032,0,0.065-0.002,0.098-0.006
		c0.202-0.027,0.474-0.04,0.806-0.04c0.993,0,2.318,0.122,2.896,0.266c0.059,0.015,0.119,0.022,0.18,0.022
		c0.337,0,0.63-0.229,0.712-0.557c0.048-0.191,0.019-0.389-0.082-0.557C39.657,26.593,39.497,26.474,39.307,26.426z"/>
	<path fill="#E97E26" d="M47.637,35.116c-0.14-0.14-0.324-0.216-0.521-0.216s-0.381,0.076-0.52,0.216
		c-0.287,0.286-0.287,0.753,0,1.04c0.142,0.142,0.22,0.33,0.22,0.531s-0.078,0.391-0.22,0.532c-0.42,0.42-0.651,0.979-0.651,1.572
		s0.231,1.152,0.651,1.572c0.139,0.139,0.323,0.215,0.52,0.215s0.381-0.076,0.521-0.216c0.286-0.286,0.286-0.753,0-1.04
		c-0.143-0.142-0.221-0.33-0.221-0.531s0.078-0.391,0.221-0.532c0.42-0.42,0.651-0.978,0.651-1.572
		C48.288,36.094,48.057,35.536,47.637,35.116z"/>
	<path fill="#E97E26" d="M48.724,23.046c0-0.201,0.078-0.39,0.22-0.532c0.867-0.867,0.867-2.277,0-3.144
		c-0.139-0.139-0.323-0.215-0.52-0.215s-0.381,0.076-0.521,0.215c-0.139,0.139-0.215,0.323-0.215,0.52
		c0,0.196,0.076,0.381,0.215,0.52c0.294,0.293,0.293,0.771,0,1.063c-0.42,0.42-0.651,0.979-0.651,1.572s0.231,1.152,0.651,1.572
		c0.14,0.139,0.324,0.215,0.521,0.215s0.381-0.076,0.52-0.215c0.287-0.287,0.287-0.753,0-1.04
		C48.802,23.436,48.724,23.247,48.724,23.046z"/>
	<path fill="#E97E26" d="M38.481,30.582c-0.775-0.573-2.773-1.576-3.832-1.857c-0.063-0.016-0.126-0.024-0.189-0.024
		c-0.333,0-0.625,0.225-0.71,0.547c-0.051,0.189-0.024,0.388,0.074,0.558s0.258,0.291,0.447,0.342
		c0.845,0.224,2.71,1.156,3.337,1.619c0.127,0.094,0.278,0.144,0.436,0.144c0.236,0,0.452-0.108,0.593-0.299
		c0.116-0.158,0.165-0.352,0.136-0.546S38.64,30.698,38.481,30.582z"/>
	<path fill="#E97E26" d="M17.621,22.15c-1.32,0-2.394,1.074-2.394,2.394c0,0.405,0.33,0.735,0.735,0.735
		c0.405,0,0.735-0.33,0.735-0.735c0-0.509,0.414-0.923,0.923-0.923s0.923,0.414,0.923,0.923c0,0.405,0.33,0.735,0.735,0.735
		c0.406,0,0.736-0.33,0.736-0.735C20.015,23.224,18.94,22.15,17.621,22.15z"/>
	<path fill="#E97E26" d="M15.743,28.7c-0.063,0-0.127,0.008-0.189,0.025c-1.059,0.281-3.057,1.285-3.833,1.857
		c-0.158,0.116-0.261,0.288-0.291,0.482s0.019,0.388,0.136,0.546c0.14,0.189,0.356,0.299,0.592,0.299
		c0.158,0,0.309-0.05,0.436-0.144c0.627-0.463,2.492-1.396,3.336-1.619c0.392-0.104,0.626-0.508,0.522-0.9
		C16.368,28.925,16.076,28.7,15.743,28.7z"/>
	<path fill="#E97E26" d="M14.955,27.627c0.032,0.004,0.065,0.006,0.098,0.006c0.367,0,0.68-0.274,0.728-0.639
		c0.026-0.195-0.026-0.388-0.146-0.543c-0.12-0.156-0.292-0.256-0.487-0.282c-0.265-0.035-0.608-0.053-1.019-0.053
		c-1.118,0-2.538,0.136-3.233,0.31c-0.19,0.048-0.351,0.167-0.452,0.335s-0.13,0.366-0.083,0.557
		c0.082,0.328,0.375,0.557,0.712,0.557c0.06,0,0.121-0.007,0.179-0.022c0.577-0.145,1.902-0.266,2.895-0.266
		C14.48,27.587,14.752,27.601,14.955,27.627z"/>
	<path fill="#E97E26" d="M32.344,22.814c-0.405,0-0.735,0.33-0.735,0.735v1.202c0,0.406,0.33,0.735,0.735,0.735
		c0.406,0,0.735-0.33,0.735-0.735v-1.202C33.079,23.144,32.75,22.814,32.344,22.814z"/>
</g>
</svg>
