<?xml version="1.0" encoding="utf-8"?>
<!-- Generator: Adobe Illustrator 16.0.0, SVG Export Plug-In . SVG Version: 6.00 Build 0)  -->
<!DOCTYPE svg PUBLIC "-//W3C//DTD SVG 1.1//EN" "http://www.w3.org/Graphics/SVG/1.1/DTD/svg11.dtd">
<svg version="1.1" id="Layer_1" xmlns="http://www.w3.org/2000/svg" xmlns:xlink="http://www.w3.org/1999/xlink" x="0px" y="0px"
	 width="60px" height="60px" viewBox="0 0 60 60" enable-background="new 0 0 60 60" xml:space="preserve">
<g>
	<path fill="#E97E26" d="M33.283,18.88h17.919c0.423,0,0.767-0.344,0.767-0.767s-0.344-0.766-0.767-0.766H33.283
		c-0.423,0-0.767,0.344-0.767,0.766S32.86,18.88,33.283,18.88z"/>
	<path fill="#E97E26" d="M58.283,25.058h-2.46V15.025h0.519c0.423,0,0.767-0.344,0.767-0.767c0-0.422-0.344-0.766-0.767-0.766
		h-1.825l-0.015-0.183C54.043,7.301,49.165,2.423,43.156,1.964L42.974,1.95V0.767C42.974,0.344,42.63,0,42.207,0
		S41.44,0.344,41.44,0.767V1.95l-0.182,0.014c-6.01,0.459-10.888,5.337-11.347,11.346l-0.014,0.183h-1.826
		c-0.422,0-0.766,0.344-0.766,0.766c0,0.423,0.344,0.767,0.766,0.767h0.519v10.032H21.25l0.238-0.316
		c0.416-0.553,0.696-1.175,0.833-1.848l0.032-0.158h0.58c0.422,0,0.766-0.344,0.766-0.767s-0.344-0.766-0.766-0.766H21.25
		l0.238-0.316c0.416-0.553,0.696-1.175,0.833-1.848l0.032-0.158h0.58c0.422,0,0.766-0.344,0.766-0.767
		c0-0.422-0.344-0.766-0.766-0.766H21.25l0.238-0.316c0.416-0.553,0.696-1.175,0.833-1.848l0.032-0.158h0.58
		c0.422,0,0.766-0.344,0.766-0.767c0-0.422-0.344-0.766-0.766-0.766H21.25l0.238-0.316c0.416-0.553,0.696-1.175,0.833-1.848
		l0.032-0.158h0.58c0.422,0,0.766-0.344,0.766-0.766c0-0.423-0.344-0.767-0.766-0.767H3.657c-0.422,0-0.766,0.344-0.766,0.767
		c0,0.422,0.344,0.766,0.766,0.766h0.58l0.032,0.158c0.137,0.674,0.418,1.295,0.834,1.848l0.238,0.316H3.657
		c-0.422,0-0.766,0.344-0.766,0.766c0,0.423,0.344,0.767,0.766,0.767h0.58l0.032,0.158c0.137,0.674,0.418,1.295,0.834,1.848
		l0.238,0.316H3.657c-0.422,0-0.766,0.344-0.766,0.766c0,0.423,0.344,0.767,0.766,0.767h0.58l0.032,0.158
		c0.137,0.674,0.418,1.296,0.834,1.848l0.238,0.316H3.657c-0.422,0-0.766,0.344-0.766,0.766s0.344,0.767,0.766,0.767h0.58
		l0.032,0.158c0.135,0.665,0.424,1.304,0.834,1.848l0.238,0.316H1.716c-0.422,0-0.766,0.344-0.766,0.767v7.709
		c0,0.423,0.344,0.767,0.766,0.767h47.569c0.423,0,0.767-0.344,0.767-0.767c0-0.422-0.344-0.766-0.767-0.766H2.482V26.59h55.034
		v6.177h-4.376c-0.423,0-0.767,0.344-0.767,0.766c0,0.423,0.344,0.767,0.767,0.767h4.041v20.289l-0.216-0.021
		c-1.492-0.145-2.373-0.631-3.306-1.145c-1.173-0.647-2.502-1.381-5.027-1.381c-2.526,0-3.855,0.733-5.028,1.381
		c-1.157,0.638-2.156,1.189-4.288,1.189s-3.131-0.552-4.288-1.189c-1.173-0.647-2.502-1.381-5.028-1.381s-3.855,0.733-5.028,1.38
		c-1.157,0.639-2.156,1.19-4.289,1.19c-2.132,0-3.131-0.552-4.288-1.189c-1.173-0.647-2.502-1.381-5.028-1.381
		s-3.855,0.733-5.028,1.381c-0.246,0.135-0.524,0.288-0.804,0.427c-0.591,0.293-1.35,0.606-2.501,0.718l-0.217,0.021V37.389
		c0-0.423-0.344-0.767-0.766-0.767s-0.766,0.344-0.766,0.767v17.99c0,0.422,0.344,0.766,0.766,0.766
		c1.053,0,1.979-0.127,2.833-0.388l0.255-0.078v3.555C5.14,59.656,5.484,60,5.906,60s0.767-0.344,0.767-0.767v-4.246l0.103-0.056
		c0.103-0.057,0.205-0.112,0.304-0.167c1.157-0.639,2.156-1.189,4.288-1.189c2.131,0,3.13,0.551,4.287,1.188
		c1.173,0.647,2.502,1.381,5.029,1.381s3.855-0.732,5.028-1.38c1.157-0.639,2.157-1.189,4.289-1.189c2.131,0,3.13,0.551,4.288,1.189
		c1.173,0.647,2.502,1.38,5.029,1.38c2.526,0,3.855-0.732,5.027-1.38c1.157-0.639,2.156-1.189,4.288-1.189s3.131,0.551,4.287,1.188
		c0.101,0.056,0.202,0.111,0.305,0.168l0.103,0.056v4.246c0,0.423,0.344,0.767,0.767,0.767s0.767-0.344,0.767-0.767v-3.555
		l0.255,0.078c0.854,0.261,1.781,0.388,2.834,0.388c0.423,0,0.767-0.344,0.767-0.766V34.173l0.068-0.059
		c0.169-0.146,0.267-0.358,0.267-0.58v-7.71c0-0.205-0.08-0.397-0.225-0.542C58.681,25.137,58.488,25.058,58.283,25.058z
		 M20.704,22.999c-0.437,1.231-1.606,2.059-2.911,2.059H8.797c-1.305,0-2.475-0.828-2.912-2.059l-0.093-0.263h15.005L20.704,22.999z
		 M20.704,19.144c-0.437,1.231-1.606,2.059-2.911,2.059H8.797c-1.305,0-2.475-0.828-2.912-2.059L5.792,18.88h15.005L20.704,19.144z
		 M20.704,15.289c-0.437,1.231-1.606,2.059-2.911,2.059H8.797c-1.305,0-2.475-0.828-2.912-2.059l-0.093-0.263h15.005L20.704,15.289z
		 M20.704,11.434c-0.437,1.231-1.606,2.059-2.911,2.059H8.797c-1.305,0-2.475-0.828-2.912-2.059L5.792,11.17h15.005L20.704,11.434z
		 M31.455,13.277c0.242-2.669,1.469-5.145,3.454-6.97c1.998-1.836,4.59-2.847,7.298-2.847c2.709,0,5.301,1.011,7.298,2.847
		c1.986,1.825,3.212,4.3,3.454,6.97l0.02,0.215H31.436L31.455,13.277z M54.291,25.058H30.123V15.025h24.168V25.058z"/>
	<circle fill="#E97E26" cx="52.487" cy="43.813" r="0.767"/>
	<circle fill="#E97E26" cx="48.632" cy="47.669" r="0.766"/>
</g>
</svg>
