<?xml version="1.0" encoding="utf-8"?>
<!-- Generator: Adobe Illustrator 16.0.0, SVG Export Plug-In . SVG Version: 6.00 Build 0)  -->
<!DOCTYPE svg PUBLIC "-//W3C//DTD SVG 1.1//EN" "http://www.w3.org/Graphics/SVG/1.1/DTD/svg11.dtd">
<svg version="1.1" id="Layer_1" xmlns="http://www.w3.org/2000/svg" xmlns:xlink="http://www.w3.org/1999/xlink" x="0px" y="0px"
	 width="67px" height="60px" viewBox="0 0 67 60" enable-background="new 0 0 67 60" xml:space="preserve">
<g>
	<path fill="#E97E26" d="M30.386,13.39L13.009,8.808c-0.073-0.02-0.149-0.029-0.225-0.029c-0.303,0-0.59,0.16-0.75,0.418
		c-1.882,3.053-3.362,6.448-4.279,9.819c-1.519,5.578-1.271,10.346,0.717,13.789c1.124,1.945,2.801,3.407,4.853,4.227l0.367,0.146
		L8.607,55.858l-7.442-1.963c-0.074-0.02-0.15-0.029-0.225-0.029c-0.399,0-0.749,0.271-0.851,0.656
		c-0.06,0.228-0.028,0.465,0.091,0.668c0.118,0.203,0.309,0.349,0.537,0.408c0.017,0.005,1.1,0.29,2.477,0.653
		c4.359,1.15,5.462,1.441,5.756,1.521v-0.001c0.022,0.004,0.022,0.004,3.544,0.933c2.133,0.563,4.5,1.187,4.771,1.258h0l0.026,0.008
		C17.364,59.989,17.439,60,17.515,60c0.399,0,0.749-0.271,0.851-0.656c0.124-0.47-0.158-0.953-0.627-1.077l-7.429-1.959
		l5.085-18.678l0.386,0.053c0.46,0.063,0.92,0.096,1.368,0.096c5.69,0,10.405-4.839,12.611-12.945
		c0.918-3.372,1.361-7.041,1.282-10.611C31.033,13.832,30.763,13.49,30.386,13.39z M28.414,22.944
		c-0.112,0.496-0.231,0.976-0.354,1.427c-1.985,7.292-6.064,11.647-10.912,11.647c-0.713,0-1.439-0.097-2.157-0.285
		c-2.157-0.569-3.883-1.887-4.993-3.809c-1.296-2.245-1.736-5.148-1.309-8.629l0.056-0.457L9.2,22.912
		c1.626,0.264,3.245,0.393,4.947,0.393c2.576,0,4.888-0.286,7.124-0.563c1.799-0.223,3.498-0.433,5.058-0.433
		c0.619,0,1.177,0.032,1.707,0.099l0.484,0.061L28.414,22.944z M29.289,15.267c-0.011,1.673-0.141,3.369-0.386,5.039l-0.063,0.434
		l-0.435-0.059c-0.646-0.088-1.326-0.131-2.078-0.131c-1.689,0-3.43,0.216-5.271,0.444c-2.066,0.255-4.408,0.545-6.903,0.545
		c-1.612,0-3.126-0.117-4.628-0.357l-0.468-0.075l0.106-0.462c0.093-0.405,0.189-0.786,0.292-1.166
		c0.786-2.886,2.021-5.828,3.571-8.507l0.169-0.292l2.965,0.782l-0.255,0.491c-0.32,0.618-0.655,1.318-0.995,2.08
		c-0.198,0.444,0.002,0.965,0.446,1.163c0.114,0.051,0.234,0.077,0.357,0.077c0.348,0,0.664-0.205,0.805-0.522
		c0.429-0.962,0.857-1.834,1.237-2.522l0.167-0.302l11.368,2.998L29.289,15.267z"/>
	<path fill="#E97E26" d="M49.729,59.966l0.048-0.013l0,0l0.075-0.02l16.434-4.335c0.469-0.123,0.75-0.606,0.626-1.076
		c-0.102-0.386-0.451-0.656-0.851-0.656c-0.075,0-0.151,0.01-0.226,0.029l-7.441,1.963l-5.086-18.681l0.367-0.146
		c2.051-0.819,3.729-2.281,4.853-4.228c1.987-3.443,2.235-8.21,0.718-13.788c-0.918-3.371-2.398-6.767-4.28-9.819
		c-0.159-0.258-0.446-0.418-0.749-0.418c-0.075,0-0.151,0.01-0.225,0.029L36.615,13.39c-0.377,0.1-0.647,0.442-0.656,0.832
		c-0.07,3.192,0.283,6.507,1.022,9.589l0.005,0.021c0.005,0.03,0.012,0.059,0.021,0.087l0.006,0.021
		c0.086,0.352,0.158,0.636,0.229,0.895c2.207,8.106,6.921,12.945,12.611,12.945c0.449,0,0.909-0.031,1.368-0.096l0.386-0.053
		l5.085,18.678l-7.429,1.96c-0.228,0.06-0.418,0.204-0.536,0.407c-0.118,0.204-0.15,0.441-0.091,0.669
		C48.737,59.729,49.088,60,49.486,60c0.075,0,0.151-0.01,0.226-0.029l0,0L49.729,59.966z M38.579,22.916l-0.063-0.291
		c-0.518-2.404-0.788-4.88-0.804-7.358l-0.003-0.344l16.096-4.245l0.169,0.292c1.551,2.679,2.786,5.621,3.571,8.508
		c0.227,0.831,0.415,1.659,0.56,2.461l0.104,0.577l-0.584-0.058c-0.502-0.05-1.018-0.074-1.576-0.074
		c-0.265,0-0.542,0.006-0.824,0.017l-0.398,0.016l-0.058-0.394c-0.146-0.995-0.365-2.033-0.523-2.729
		c-0.09-0.397-0.45-0.686-0.857-0.686c-0.065,0-0.131,0.008-0.196,0.022c-0.229,0.052-0.425,0.19-0.55,0.39
		c-0.126,0.199-0.166,0.435-0.113,0.664c0.202,0.89,0.36,1.706,0.472,2.425l0.07,0.456l-0.458,0.052
		c-0.613,0.07-1.25,0.151-1.812,0.223c-2.061,0.263-4.395,0.561-6.896,0.561c-1.752,0-3.398-0.142-5.034-0.434L38.579,22.916z
		 M49.854,36.018c-2.275-0.001-4.45-0.983-6.291-2.842c-1.8-1.817-3.287-4.486-4.302-7.718l-0.209-0.667l0.692,0.095
		c1.377,0.189,2.737,0.281,4.157,0.281c2.582,0,4.89-0.294,7.121-0.579c1.794-0.229,3.486-0.445,5.04-0.445
		c0.732,0,1.388,0.047,2.002,0.144l0.354,0.056l0.021,0.357c0.16,2.866-0.323,5.296-1.436,7.224
		c-1.11,1.922-2.837,3.239-4.993,3.808C51.293,35.921,50.567,36.018,49.854,36.018z"/>
	<path fill="#E97E26" d="M33.5,0c-0.485,0-0.88,0.395-0.88,0.88v3.453c0,0.485,0.395,0.88,0.88,0.88c0.486,0,0.88-0.395,0.88-0.88
		V0.88C34.381,0.395,33.986,0,33.5,0z"/>
	<path fill="#E97E26" d="M27.314,7.163c0.158,0.269,0.449,0.436,0.761,0.436c0.155,0,0.309-0.042,0.444-0.121
		c0.419-0.246,0.56-0.787,0.314-1.206l-1.754-2.99c-0.158-0.269-0.449-0.436-0.761-0.436c-0.156,0-0.309,0.042-0.444,0.122
		c-0.203,0.119-0.348,0.31-0.407,0.538c-0.06,0.228-0.026,0.465,0.092,0.667L27.314,7.163z"/>
	<path fill="#E97E26" d="M38.481,7.478c0.136,0.079,0.289,0.121,0.444,0.121c0.313,0,0.604-0.167,0.762-0.435l1.754-2.99
		c0.245-0.419,0.104-0.96-0.314-1.206c-0.135-0.079-0.289-0.121-0.444-0.121c-0.312,0-0.604,0.167-0.761,0.435l-1.754,2.99
		c-0.119,0.203-0.152,0.44-0.093,0.667S38.279,7.358,38.481,7.478z"/>
	<path fill="#E97E26" d="M52.695,16.774c0.46-0.144,0.718-0.633,0.579-1.094l-0.005-0.016c-0.116-0.373-0.454-0.622-0.841-0.622
		c-0.086,0-0.172,0.013-0.255,0.038c-0.226,0.068-0.411,0.219-0.522,0.427c-0.11,0.208-0.135,0.445-0.066,0.671l0.007,0.022
		c0.117,0.367,0.454,0.614,0.839,0.614C52.52,16.815,52.608,16.801,52.695,16.774z"/>
	<circle fill="#E97E26" cx="14.176" cy="17.822" r="0.881"/>
</g>
</svg>
