<?xml version="1.0" encoding="utf-8"?>
<!-- Generator: Adobe Illustrator 16.0.0, SVG Export Plug-In . SVG Version: 6.00 Build 0)  -->
<!DOCTYPE svg PUBLIC "-//W3C//DTD SVG 1.1//EN" "http://www.w3.org/Graphics/SVG/1.1/DTD/svg11.dtd">
<svg version="1.1" id="Layer_1" xmlns="http://www.w3.org/2000/svg" xmlns:xlink="http://www.w3.org/1999/xlink" x="0px" y="0px"
	 width="61px" height="60px" viewBox="0 0 61 60" enable-background="new 0 0 61 60" xml:space="preserve">
<g>
	<path fill="#E97E26" d="M57.127,29.896c-2.784-4.104-6.984-6.948-11.827-8.009l-0.228-0.05l3.634-9.081
		c0.115-0.289,0.048-0.617-0.173-0.837l-2.922-2.922c-0.147-0.148-0.342-0.23-0.55-0.23h-5.844c-0.208,0-0.402,0.081-0.55,0.228
		l-2.922,2.922c-0.22,0.22-0.288,0.548-0.173,0.837l3.521,8.799l-0.255,0.031c-0.99,0.12-1.979,0.318-2.939,0.589l-0.137,0.039
		l-0.08-0.117c-2.515-3.692-6.261-6.417-10.548-7.674l-0.319-0.094l7.158-7.157c0.303-0.303,0.303-0.795,0-1.098l-5.845-5.845
		C25.981,0.081,25.787,0,25.579,0H13.891c-0.208,0-0.402,0.081-0.549,0.228L7.497,6.072c-0.303,0.303-0.303,0.795,0,1.098
		l7.157,7.156l-0.317,0.095C4.148,17.445-1.682,28.193,1.342,38.382c2.411,8.123,10.005,13.796,18.468,13.796
		c1.747,0,3.493-0.24,5.191-0.715l0.137-0.038l0.08,0.117C28.811,56.838,34.781,60,41.19,60h0.001c3.86,0,7.596-1.15,10.804-3.326
		c4.262-2.892,7.143-7.269,8.111-12.326C61.076,39.29,60.018,34.158,57.127,29.896z M39.539,10.32h5.201l2.343,2.343h-9.885
		L39.539,10.32z M37.832,14.217h8.615l-2.945,7.364l-0.15-0.018c-0.722-0.085-1.458-0.13-2.187-0.133
		c-0.053,0-0.105,0.003-0.159,0.006c-0.049,0.002-0.098,0.005-0.146,0.006l-0.136,0.002L37.832,14.217z M25.259,1.554l4.29,4.291
		h-4.385l-1.43-4.291H25.259z M14.212,1.554h1.524l-1.431,4.291H9.921L14.212,1.554z M9.921,7.398h4.463l1.645,3.291l1.391-0.694
		l-1.716-3.433l1.668-5.008h1.587v8.767h1.553V1.554h1.586l1.668,5.008L22.05,9.994l1.391,0.694l1.645-3.291h4.464l-6.239,6.239
		h-7.15L9.921,7.398z M24.059,50.124c-1.407,0.352-2.855,0.529-4.305,0.529h-0.039c-4.737,0-9.192-1.844-12.544-5.192
		C3.819,42.113,1.97,37.66,1.965,32.922C1.96,28.181,3.802,23.721,7.15,20.365c3.349-3.356,7.805-5.208,12.546-5.213h0.02
		c4.737,0,9.192,1.844,12.544,5.192c3.352,3.348,5.201,7.801,5.206,12.539c0.007,5.99-2.974,11.536-7.974,14.835l-0.174,0.114
		l-0.105-0.18c-0.335-0.572-0.631-1.174-0.879-1.788l-0.06-0.147l0.131-0.09c7.019-4.799,8.826-14.413,4.027-21.432
		c-2.877-4.207-7.641-6.718-12.744-6.718c-3.108,0-6.113,0.931-8.688,2.692c-3.4,2.325-5.691,5.834-6.452,9.882
		c-0.76,4.048,0.101,8.149,2.426,11.55c2.876,4.206,7.634,6.717,12.728,6.717c1.145,0,2.294-0.129,3.414-0.383l0.163-0.037
		l0.063,0.154c0.249,0.606,0.533,1.208,0.843,1.787l0.12,0.223L24.059,50.124z M38.209,27.416l-0.062-0.206l0.211-0.044
		c0.936-0.195,1.89-0.294,2.837-0.294c3.131,0,6.206,1.086,8.66,3.059c2.487,1.999,4.217,4.824,4.87,7.955
		c1.557,7.468-3.252,14.811-10.72,16.367c-0.929,0.193-1.879,0.292-2.825,0.292c-4.258,0-8.215-1.917-10.855-5.26l-0.133-0.168
		l0.18-0.119C37.52,44.288,40.669,35.614,38.209,27.416z M28.021,43.996l-0.24,0.179l-0.07-0.291
		c-0.249-1.036-0.377-2.102-0.38-3.168c-0.011-4.344,2.063-8.483,5.549-11.075l0.24-0.178l0.069,0.291
		C34.48,35.117,32.451,40.708,28.021,43.996z M22.691,46.222l0.062,0.206l-0.211,0.043c-0.936,0.195-1.89,0.295-2.837,0.295
		c-3.13,0-6.206-1.087-8.66-3.06c-2.487-1.999-4.217-4.824-4.87-7.955c-1.557-7.468,3.252-14.81,10.72-16.367
		c0.929-0.193,1.879-0.292,2.825-0.292c4.258,0,8.215,1.917,10.855,5.259l0.133,0.168l-0.18,0.119
		C23.381,29.349,20.232,38.022,22.691,46.222z M56.344,49.839c-2.438,4.062-6.31,6.93-10.905,8.078
		c-1.396,0.349-2.834,0.527-4.272,0.529c-9.776,0-17.729-7.95-17.731-17.723c-0.001-5.979,2.979-11.514,7.971-14.805l0.174-0.114
		l0.105,0.179c0.336,0.573,0.632,1.174,0.881,1.789l0.06,0.147l-0.132,0.089c-7.019,4.799-8.825,14.413-4.026,21.432
		c2.876,4.207,7.64,6.718,12.744,6.718c3.107,0,6.112-0.931,8.688-2.692c3.399-2.324,5.691-5.834,6.451-9.882
		c0.761-4.048-0.101-8.149-2.426-11.549c-2.875-4.207-7.634-6.718-12.727-6.718c-1.146,0-2.294,0.129-3.415,0.383l-0.162,0.037
		l-0.063-0.155c-0.25-0.606-0.533-1.208-0.843-1.787l-0.12-0.223l0.246-0.062c1.415-0.354,2.866-0.533,4.312-0.533
		c3.884,0,7.726,1.313,10.819,3.697c3.188,2.457,5.392,5.826,6.37,9.74C59.491,41.011,58.781,45.778,56.344,49.839z"/>
	
		<rect x="39.012" y="3.896" transform="matrix(0.7071 0.7071 -0.7071 0.7071 15.0763 -27.0517)" fill="#E97E26" width="2.36" height="1.554"/>
	
		<rect x="44.285" y="3.492" transform="matrix(0.7071 0.7071 -0.7071 0.7071 16.5021 -30.4948)" fill="#E97E26" width="1.554" height="2.36"/>
</g>
</svg>
